<?xml version="1.0" standalone="no"?>
<!DOCTYPE svg PUBLIC "-//W3C//DTD SVG 20010904//EN"
 "http://www.w3.org/TR/2001/REC-SVG-20010904/DTD/svg10.dtd">
<svg version="1.0" xmlns="http://www.w3.org/2000/svg"
 width="1678.000000pt" height="1678.000000pt" viewBox="0 0 1678.000000 1678.000000"
 preserveAspectRatio="xMidYMid meet">
<metadata>
Created by potrace 1.11, written by Peter Selinger 2001-2013
</metadata>
<g transform="translate(0.000000,1678.000000) scale(0.100000,-0.100000)"
fill="#000000" stroke="none">
<path d="M7583 16202 c-18 -2 -33 -7 -33 -13 0 -10 83 -10 120 0 22 7 21 8
-15 12 -22 2 -55 3 -72 1z"/>
<path d="M7394 16191 c-3 -3 -100 -5 -217 -6 -190 -1 -226 -4 -342 -29 -155
-33 -315 -72 -370 -91 -142 -49 -148 -74 -10 -44 50 11 122 26 160 35 109 23
214 43 350 64 91 15 168 28 230 39 28 6 80 10 116 10 90 1 189 12 189 21 0 8
-98 8 -106 1z"/>
<path d="M7848 16193 c6 -2 18 -2 25 0 6 3 1 5 -13 5 -14 0 -19 -2 -12 -5z"/>
<path d="M8330 16180 c0 -6 7 -10 15 -10 8 0 15 2 15 4 0 2 -7 6 -15 10 -8 3
-15 1 -15 -4z"/>
<path d="M8582 16161 c-10 -6 -4 -10 18 -15 37 -7 59 2 39 15 -18 11 -40 11
-57 0z"/>
<path d="M9455 16040 c3 -5 10 -10 16 -10 5 0 9 5 9 10 0 6 -7 10 -16 10 -8 0
-12 -4 -9 -10z"/>
<path d="M9660 16000 c8 -5 26 -9 40 -9 23 0 23 1 5 9 -11 5 -29 9 -40 9 -17
1 -17 -1 -5 -9z"/>
<path d="M6105 15983 c-136 -7 -277 -37 -455 -96 -25 -9 -70 -23 -100 -32
-103 -31 -442 -181 -530 -235 -8 -5 -73 -40 -145 -78 -71 -38 -148 -79 -170
-92 -22 -13 -69 -40 -105 -60 -60 -34 -426 -274 -565 -371 -100 -70 -283 -208
-364 -275 -42 -35 -102 -85 -134 -111 -107 -88 -230 -197 -291 -258 -94 -93
-196 -206 -196 -216 0 -21 48 19 223 185 178 170 346 316 403 352 16 10 34 22
39 28 6 6 39 34 74 61 35 28 80 64 100 81 20 17 56 44 81 60 25 17 86 58 135
91 185 125 451 298 485 317 19 10 82 46 140 79 231 133 567 301 705 352 33 12
103 39 155 60 160 63 355 109 525 124 82 8 150 30 93 31 -14 0 -32 1 -40 3 -7
2 -35 2 -63 0z"/>
<path d="M12525 15923 c-25 -56 -72 -195 -95 -282 -8 -29 -28 -62 -59 -95 -57
-60 -69 -81 -69 -119 0 -22 -14 -43 -56 -86 -44 -44 -65 -78 -95 -147 -21 -49
-42 -105 -46 -124 -4 -19 -13 -44 -20 -55 -16 -27 -4 -155 24 -260 12 -43 20
-84 17 -91 -2 -6 -29 -15 -58 -19 -86 -11 -256 -55 -353 -92 -278 -105 -372
-149 -504 -237 -55 -37 -91 -54 -103 -50 -10 3 -31 24 -47 47 -42 60 -159 182
-167 174 -9 -9 64 -102 127 -162 62 -59 73 -84 58 -135 -18 -60 12 -134 142
-355 82 -139 291 -362 456 -487 97 -73 164 -159 190 -243 7 -22 28 -58 46 -80
19 -22 49 -71 66 -109 52 -111 45 -69 -9 53 -27 62 -68 138 -90 170 -26 37
-38 64 -34 74 3 10 10 17 14 17 14 0 239 -110 245 -120 7 -11 -12 -273 -21
-303 -4 -14 -12 -17 -30 -13 -21 6 -24 3 -24 -21 0 -16 9 -47 19 -70 18 -39
19 -51 7 -230 -16 -225 -15 -326 3 -347 8 -9 28 -16 45 -16 45 0 174 -28 208
-46 16 -8 36 -32 46 -52 9 -20 31 -55 49 -76 18 -21 38 -55 44 -75 6 -20 15
-40 19 -46 4 -5 24 -49 44 -97 19 -48 51 -118 71 -156 19 -38 35 -75 35 -82 0
-7 9 -27 19 -44 11 -17 33 -69 51 -116 17 -47 42 -107 55 -135 13 -27 31 -75
41 -105 9 -30 31 -85 49 -121 18 -37 42 -103 54 -148 34 -125 110 -312 110
-271 1 28 -63 265 -76 283 -5 7 -15 30 -22 52 -7 22 -18 54 -25 70 -20 45 -37
95 -48 142 -5 23 -16 47 -24 53 -7 7 -23 44 -35 84 -12 39 -36 100 -54 136
-18 36 -36 76 -40 90 -4 14 -23 59 -42 100 -19 41 -41 91 -48 110 -22 59 -24
63 -65 135 -21 39 -51 95 -65 125 -14 30 -30 63 -36 72 -12 23 -12 48 1 48 13
0 329 -67 395 -84 l50 -13 1 -94 c5 -392 4 -488 -6 -519 -20 -70 -4 -143 20
-88 10 24 84 271 102 343 18 71 18 71 28 55 6 -8 10 -31 10 -50 1 -47 34 -210
48 -237 7 -12 11 -33 10 -46 -1 -14 9 -48 22 -76 33 -67 56 -68 118 -1 47 49
84 70 124 70 21 0 21 -2 14 -187 -4 -104 -9 -289 -11 -413 -6 -310 -13 -458
-25 -494 -5 -17 -13 -65 -19 -106 -30 -226 -43 -280 -59 -253 -13 21 -108 328
-138 447 -8 32 -26 81 -41 110 -14 28 -32 65 -41 83 -9 18 -18 31 -20 29 -7
-7 31 -149 84 -311 20 -60 40 -126 44 -145 5 -19 14 -53 20 -75 6 -22 15 -56
20 -75 10 -43 43 -159 75 -265 13 -44 33 -125 45 -180 12 -55 35 -145 50 -200
16 -55 31 -116 35 -135 4 -19 27 -118 51 -220 82 -338 92 -384 133 -565 23
-99 52 -229 66 -290 27 -121 104 -505 130 -655 9 -52 23 -126 30 -165 7 -38
19 -113 25 -165 7 -52 18 -126 25 -165 l13 -70 1 55 c0 30 -11 134 -25 230
-13 96 -31 224 -39 283 -8 60 -17 112 -20 116 -2 5 -14 64 -25 132 -11 68 -29
162 -40 209 -11 47 -29 132 -41 190 l-22 106 72 214 c94 278 114 349 145 500
65 323 71 372 91 790 10 192 7 880 -5 1115 -11 234 -16 290 -32 384 l-11 65
34 28 c25 21 29 28 15 28 -10 0 -29 -9 -43 -19 -32 -26 -105 -37 -142 -22 -15
7 -35 27 -44 47 -9 19 -21 34 -26 34 -6 0 -24 20 -40 44 -22 31 -42 48 -68 56
-43 14 -97 61 -119 103 -18 34 -30 28 -44 -21 -15 -55 -67 -131 -102 -150 -17
-9 -45 -29 -62 -43 -27 -23 -88 -59 -99 -59 -2 0 -17 21 -34 48 -23 36 -29 55
-26 80 3 18 0 54 -7 80 -6 26 -15 79 -20 117 -4 39 -16 113 -26 165 -10 52
-18 115 -18 140 l-1 45 40 -1 c22 -1 87 -6 145 -12 163 -17 365 -16 380 3 25
30 0 248 -64 570 -13 66 -34 174 -46 240 -23 123 -89 410 -115 501 -8 28 -15
65 -15 82 0 40 -16 81 -43 110 -16 17 -23 42 -28 97 -7 72 -29 147 -55 190
-17 28 -54 152 -54 181 0 13 3 24 8 25 4 0 52 2 107 4 106 3 233 31 282 63 73
46 123 87 123 101 1 9 27 44 60 78 56 59 60 62 97 56 21 -3 70 -15 108 -28
128 -41 154 -41 114 1 -13 14 -53 31 -105 45 -46 13 -83 28 -81 34 7 21 398 8
617 -20 145 -18 307 -53 469 -101 62 -19 134 -34 160 -34 41 0 48 4 63 31 16
27 16 33 4 58 -8 15 -21 73 -30 128 -8 56 -24 117 -35 139 -12 21 -21 45 -21
52 0 22 -55 148 -127 290 -54 105 -73 134 -93 140 -42 11 -344 7 -525 -7 -238
-20 -362 -22 -375 -6 -5 7 -19 37 -29 67 -11 33 -49 94 -98 158 -44 58 -84
116 -88 128 -33 106 -118 220 -201 268 -50 29 -188 84 -211 84 -9 0 -51 13
-92 29 -42 16 -122 44 -178 61 -56 18 -116 43 -135 57 -38 29 -178 97 -255
124 -29 9 -69 29 -90 43 -21 14 -43 26 -50 26 -6 0 -23 -26 -38 -57z m1058
-5034 c30 -131 81 -624 92 -899 9 -226 15 -323 24 -362 5 -20 6 -48 4 -62 -3
-16 3 -36 16 -55 12 -16 21 -34 21 -40 0 -18 19 -12 30 10 11 20 12 20 31 3
13 -12 18 -26 15 -40 -3 -12 -2 -42 3 -68 6 -35 5 -48 -6 -58 -9 -7 -12 -21
-8 -35 3 -14 1 -23 -7 -23 -6 0 -3 -6 8 -14 17 -13 19 -26 17 -104 -1 -55 -7
-103 -16 -124 -18 -39 -29 -85 -26 -113 0 -11 1 -29 1 -40 0 -33 -33 -156 -59
-219 -13 -33 -27 -80 -30 -105 -10 -78 -73 -185 -73 -124 0 10 -9 35 -20 56
-19 36 -64 197 -110 402 -13 55 -32 134 -43 175 -11 41 -28 111 -39 155 -10
44 -22 96 -27 115 -11 44 -74 240 -96 299 -9 25 -19 73 -22 108 -5 57 -4 66
17 88 17 18 24 41 30 97 4 40 14 87 22 103 27 52 69 229 98 415 6 41 24 116
40 165 15 50 31 116 35 149 6 49 22 119 41 174 7 23 28 7 37 -29z"/>
<path d="M13695 9418 c-9 -103 -4 -152 17 -156 23 -4 37 51 26 102 -5 22 -6
46 -3 54 6 15 -15 72 -27 72 -3 0 -9 -33 -13 -72z"/>
<path d="M13757 9306 c-7 -19 11 -32 24 -19 6 6 5 14 -4 22 -12 9 -16 8 -20
-3z"/>
<path d="M10408 15823 c7 -3 16 -2 19 1 4 3 -2 6 -13 5 -11 0 -14 -3 -6 -6z"/>
<path d="M10635 15750 c3 -5 15 -10 26 -10 11 0 17 5 14 10 -3 6 -15 10 -26
10 -11 0 -17 -4 -14 -10z"/>
<path d="M10712 15728 c2 -6 24 -16 49 -23 24 -7 53 -16 64 -20 15 -6 17 -5
10 3 -16 17 -127 54 -123 40z"/>
<path d="M10905 15660 c3 -5 11 -10 16 -10 6 0 7 5 4 10 -3 6 -11 10 -16 10
-6 0 -7 -4 -4 -10z"/>
<path d="M11044 15600 c21 -11 43 -23 50 -28 6 -5 22 -13 35 -17 61 -19 370
-170 459 -224 85 -52 199 -128 281 -189 88 -65 115 -73 65 -21 -96 101 -416
289 -714 420 -143 63 -268 105 -176 59z"/>
<path d="M9860 15345 c7 -8 18 -15 24 -15 6 0 32 -17 58 -37 49 -40 189 -145
267 -201 25 -19 74 -59 108 -89 35 -30 68 -53 74 -51 13 4 -133 131 -222 193
-67 47 -149 110 -170 130 -9 8 -19 15 -23 15 -4 0 -31 16 -60 35 -57 37 -76
44 -56 20z"/>
<path d="M10480 14868 c41 -40 144 -139 227 -221 84 -82 158 -147 163 -145 23
7 -428 438 -457 438 -4 0 26 -33 67 -72z"/>
<path d="M4050 14405 c-7 -8 -18 -15 -26 -15 -16 0 -84 -58 -84 -72 0 -5 12
-2 28 7 40 24 119 94 106 95 -6 0 -17 -7 -24 -15z"/>
<path d="M3870 14270 c-19 -16 -69 -57 -110 -91 -41 -33 -104 -95 -139 -137
-35 -42 -76 -90 -92 -106 -16 -16 -29 -34 -29 -38 0 -5 -17 -27 -39 -51 -21
-23 -48 -60 -59 -82 -11 -22 -29 -49 -41 -59 -12 -11 -21 -24 -21 -30 0 -6
-16 -35 -35 -64 -20 -29 -55 -90 -79 -135 -24 -45 -66 -124 -95 -176 -51 -94
-161 -340 -161 -361 0 -6 -15 -43 -33 -83 -38 -82 -88 -237 -152 -471 l-16
-58 -42 6 c-23 4 -71 13 -107 21 -36 8 -113 17 -171 21 -58 3 -111 9 -117 13
-7 4 -21 34 -33 66 -11 32 -31 72 -45 90 -13 17 -24 36 -24 42 0 5 -27 35 -60
67 -46 44 -60 65 -60 86 0 16 4 32 10 35 5 3 42 70 81 148 39 78 77 149 85
158 8 8 14 18 14 22 0 3 26 48 57 99 70 115 114 201 106 208 -3 3 -10 -4 -17
-14 -6 -11 -23 -33 -37 -50 -36 -44 -199 -325 -199 -344 0 -4 -16 -32 -36 -62
-19 -30 -51 -85 -70 -122 -46 -92 -63 -102 -134 -81 -71 20 -86 34 -101 96 -9
40 -23 62 -60 98 -65 64 -119 88 -213 96 -127 10 -126 8 -167 287 -12 83 -26
147 -34 155 -13 13 -21 11 -66 -10 -106 -49 -263 -169 -424 -323 -88 -84 -187
-175 -220 -203 -42 -35 -69 -68 -89 -109 -34 -70 -83 -151 -107 -179 -27 -30
-81 -147 -124 -265 -20 -58 -48 -130 -61 -160 -34 -80 -64 -311 -64 -487 0
-99 -7 -123 -38 -123 -7 0 -56 -17 -108 -37 l-94 -37 0 -483 c0 -425 4 -521
22 -474 3 10 64 82 139 166 25 28 60 72 77 96 17 25 57 65 89 89 81 62 132
110 149 143 9 16 44 61 78 101 35 39 74 90 88 112 41 65 50 69 115 54 31 -7
99 -13 150 -14 124 -3 130 -8 113 -107 -7 -41 -17 -78 -22 -83 -4 -6 -8 -20
-8 -32 0 -12 -7 -41 -16 -65 -40 -110 -53 -193 -79 -494 -9 -93 -18 -192 -21
-220 -3 -27 -6 -106 -8 -175 -2 -69 -7 -190 -11 -270 -14 -236 -9 -539 11
-618 9 -37 21 -73 26 -79 15 -19 70 -16 135 7 50 16 366 75 543 101 65 9 251
57 265 69 20 15 251 93 280 94 27 1 31 -4 56 -69 28 -75 105 -235 144 -300 13
-22 30 -51 37 -65 6 -14 19 -36 28 -50 9 -14 27 -58 40 -99 23 -72 23 -74 5
-87 -10 -8 -32 -14 -47 -14 -16 0 -42 -7 -57 -15 -25 -12 -40 -12 -112 -1
l-84 13 -54 -28 c-47 -25 -65 -29 -136 -29 -94 0 -97 -2 -131 -84 -20 -46 -26
-53 -71 -68 -45 -15 -55 -15 -97 -3 -26 8 -64 23 -84 34 -20 11 -75 25 -122
32 -117 16 -163 44 -189 112 -13 33 -72 61 -111 53 -49 -9 -139 19 -178 57
l-37 34 -40 -18 c-22 -10 -52 -19 -66 -19 -30 0 -48 -13 -78 -57 -29 -43 -133
-93 -194 -93 -28 0 -53 -7 -68 -18 -55 -43 -128 -58 -252 -54 -54 2 -60 5
-100 46 -31 32 -52 45 -80 49 l-37 6 1 -159 c1 -126 4 -160 15 -164 8 -3 14 1
14 9 0 21 16 26 43 14 22 -10 24 -17 21 -51 -2 -22 -6 -43 -8 -47 -15 -23 54
-61 109 -61 47 0 121 28 164 61 13 11 38 19 56 19 18 0 52 7 76 16 25 8 83 16
134 17 l90 2 -1 -30 c-1 -16 -4 -88 -9 -160 -20 -351 -8 -1093 21 -1295 8 -58
21 -168 29 -245 13 -133 44 -344 64 -430 5 -22 26 -114 46 -205 54 -247 108
-445 126 -464 5 -6 9 -20 9 -32 0 -30 10 -54 22 -54 13 0 1 93 -18 139 -8 18
-14 41 -14 50 0 9 -7 28 -14 43 -8 16 -22 70 -31 120 -9 51 -21 103 -26 116
-5 13 -9 33 -9 45 0 12 -6 51 -14 87 -8 36 -20 99 -26 140 -7 41 -16 95 -21
120 -9 40 -36 219 -58 382 -4 32 -10 60 -13 63 -3 3 -2 22 2 41 4 18 4 51 -1
72 -12 49 -23 309 -20 446 2 78 7 116 18 133 9 13 13 26 10 29 -3 4 7 17 22
30 33 27 77 33 67 9 -6 -16 28 -40 44 -30 16 10 11 -12 -6 -29 -10 -10 -11
-16 -4 -16 8 0 11 -11 8 -29 -3 -18 0 -27 5 -24 5 3 7 0 5 -8 -7 -20 20 -69
37 -69 9 0 16 10 16 25 1 14 2 28 3 33 1 4 7 25 13 47 6 22 16 63 21 90 17 87
68 279 80 302 7 12 12 30 12 40 0 10 26 72 59 138 32 66 62 131 66 145 4 14
15 36 25 50 10 14 43 75 75 135 63 121 73 135 88 135 17 0 0 -168 -23 -235
-11 -33 -29 -100 -40 -150 -10 -49 -31 -142 -45 -205 -14 -63 -28 -147 -30
-187 -1 -39 -6 -77 -10 -84 -18 -28 -42 -504 -26 -513 14 -9 29 48 35 129 2
39 9 90 14 115 6 25 13 74 17 110 11 99 35 131 52 68 4 -18 9 -112 10 -208 3
-351 6 -390 29 -409 55 -45 94 -192 59 -221 -16 -14 -21 -80 -6 -96 6 -5 0
-50 -14 -111 -13 -57 -26 -140 -29 -185 -3 -46 -10 -146 -16 -223 -6 -77 -10
-162 -9 -190 1 -27 -3 -104 -10 -170 -10 -104 -13 -254 -11 -493 1 -80 18
-297 30 -382 23 -164 46 -289 60 -324 5 -14 6 -27 2 -30 -14 -8 -31 9 -47 46
-8 20 -41 90 -73 155 -56 114 -119 256 -149 338 -8 22 -22 54 -32 70 -10 17
-23 50 -30 75 -7 25 -17 59 -23 75 -6 17 -18 51 -27 77 -9 26 -22 53 -29 60
-34 34 8 -113 63 -221 14 -28 25 -58 25 -68 0 -9 8 -35 18 -57 10 -23 29 -68
42 -101 13 -33 40 -96 61 -140 21 -44 59 -125 84 -180 26 -55 68 -145 95 -200
26 -55 71 -148 98 -206 28 -58 63 -123 78 -146 199 -280 303 -411 406 -507 40
-38 105 -99 143 -135 39 -37 88 -80 110 -96 22 -17 66 -51 98 -77 32 -27 62
-48 68 -48 22 0 6 23 -38 53 -88 60 -244 210 -376 360 -188 213 -254 296 -267
331 -22 58 -30 71 -93 144 -57 66 -66 82 -101 190 -20 64 -46 137 -56 162 -25
63 -69 294 -80 420 -5 58 -14 158 -20 222 -12 115 -10 231 9 618 9 179 27 379
36 410 3 8 7 44 10 80 10 108 64 409 95 530 5 19 19 76 31 125 11 50 36 144
54 210 18 66 45 167 60 225 15 58 40 146 56 195 15 50 33 119 40 155 11 60 57
261 99 440 10 41 27 115 38 163 11 49 23 91 25 94 17 17 36 -19 93 -177 105
-288 442 -1007 551 -1175 22 -33 71 -110 110 -172 74 -116 142 -213 203 -288
19 -24 58 -72 85 -107 75 -94 252 -268 320 -315 34 -22 67 -48 74 -57 7 -9 17
-16 22 -16 20 0 7 67 -35 178 -24 64 -58 167 -75 227 -18 61 -48 155 -66 210
-19 55 -48 152 -64 215 -17 63 -44 165 -61 225 -18 61 -40 144 -51 185 -11 41
-24 91 -29 110 -38 144 -75 305 -105 460 -23 116 -46 220 -62 279 -8 30 -12
63 -9 74 3 11 -1 38 -8 61 -16 51 -31 137 -51 291 -8 66 -20 149 -25 185 -6
36 -15 110 -21 165 -13 129 -30 300 -34 345 -2 19 -10 76 -19 125 -9 50 -16
115 -16 145 0 42 -5 59 -19 72 -15 13 -20 35 -25 110 -13 213 -21 1078 -11
1263 18 351 37 541 59 583 7 15 44 104 81 197 101 252 149 424 143 512 -3 45
-6 49 -41 66 -21 10 -40 24 -43 32 -3 7 3 44 15 82 36 124 92 317 108 373 32
117 188 492 233 560 9 14 40 73 70 133 30 59 91 157 137 218 45 60 93 127 105
147 45 75 146 189 281 322 75 74 137 138 137 143 0 13 -14 6 -50 -23z m-1685
-3850 c44 -33 106 -73 137 -90 100 -52 82 -66 -38 -29 -38 12 -96 34 -129 50
-64 30 -84 56 -100 127 l-7 34 29 -16 c15 -9 64 -43 108 -76z m58 -952 c14
-18 32 -49 42 -68 9 -19 52 -90 94 -157 129 -208 140 -228 128 -232 -6 -2 -13
1 -15 7 -2 7 -18 28 -35 47 -58 65 -257 390 -257 420 0 24 17 17 43 -17z m226
-824 c16 -44 38 -99 49 -124 11 -25 39 -90 62 -145 23 -55 52 -116 65 -135 13
-19 26 -46 30 -60 4 -14 24 -54 45 -90 53 -91 113 -220 106 -227 -21 -22 -141
72 -197 155 -77 114 -290 526 -325 627 -19 57 -13 75 25 75 16 0 42 7 57 15
38 20 48 9 83 -91z"/>
<path d="M2980 14099 c0 -5 5 -7 10 -4 6 3 10 8 10 11 0 2 -4 4 -10 4 -5 0
-10 -5 -10 -11z"/>
<path d="M2949 14063 c-13 -16 -12 -17 4 -4 16 13 21 21 13 21 -2 0 -10 -8
-17 -17z"/>
<path d="M14350 14051 c25 -20 138 -57 147 -47 16 15 -51 45 -137 61 l-35 6
25 -20z"/>
<path d="M13735 14003 c17 -16 66 -53 110 -83 44 -30 103 -74 130 -99 28 -24
61 -48 75 -54 14 -6 44 -24 67 -41 24 -16 45 -27 48 -24 6 6 -196 181 -258
226 -18 12 -39 31 -48 41 -21 25 -67 48 -114 56 l-40 7 30 -29z"/>
<path d="M2835 13940 c-16 -16 -26 -32 -24 -35 3 -3 18 9 34 25 16 16 26 32
24 35 -3 3 -18 -9 -34 -25z"/>
<path d="M14635 13950 c3 -5 14 -10 23 -10 15 0 15 2 2 10 -20 13 -33 13 -25
0z"/>
<path d="M15654 13439 c-4 -7 2 -19 16 -31 42 -34 56 -17 16 21 -18 17 -26 19
-32 10z"/>
<path d="M8140 13416 c0 -1 21 -48 46 -102 25 -54 54 -117 64 -139 10 -22 30
-67 45 -100 15 -33 47 -109 71 -170 24 -60 49 -119 55 -129 23 -40 133 -337
210 -566 111 -334 156 -485 193 -645 9 -38 23 -92 31 -120 20 -66 61 -278 75
-385 7 -47 21 -130 32 -185 12 -55 25 -124 29 -152 9 -53 20 -115 38 -208 5
-27 16 -68 24 -90 37 -99 67 -732 48 -1012 -6 -98 -13 -205 -15 -238 -4 -78
-25 -255 -31 -265 -2 -4 -9 -50 -15 -101 -6 -52 -17 -114 -25 -139 -7 -25 -19
-79 -25 -120 -6 -41 -26 -124 -44 -185 -19 -60 -39 -129 -45 -151 -20 -77 -61
-85 -56 -12 7 90 4 589 -5 713 -16 246 -39 498 -49 549 -12 60 -31 197 -37
276 -3 30 -9 71 -14 90 -5 19 -9 61 -9 93 0 32 -3 62 -6 66 -5 9 -29 159 -44
276 -5 33 -14 80 -21 105 -35 130 -54 186 -68 200 -13 13 -13 7 -7 -50 4 -36
8 -124 10 -197 1 -72 7 -160 14 -195 21 -124 43 -370 37 -421 -4 -35 -1 -69 9
-102 14 -46 20 -129 30 -430 5 -166 5 -161 15 -145 5 8 10 51 11 95 0 44 4
105 8 135 5 47 8 52 17 35 12 -21 15 -38 39 -225 13 -94 41 -471 43 -570 10
-413 7 -507 -19 -688 -10 -66 -8 -94 6 -81 8 9 45 214 45 253 0 22 7 47 16 57
9 10 22 44 29 76 7 32 22 81 33 108 12 28 30 88 42 135 12 47 28 101 35 120
27 73 100 493 110 628 1 21 8 96 16 167 25 249 14 813 -22 1095 -10 81 -18
119 -76 395 -14 66 -29 143 -33 170 -17 103 -30 172 -46 230 -8 33 -19 78 -23
100 -4 22 -15 67 -24 100 -9 33 -26 103 -38 155 -12 52 -32 129 -45 170 -12
41 -28 107 -34 145 -7 39 -16 92 -21 118 -5 26 -9 55 -9 62 0 28 28 15 47 -22
26 -54 74 -135 89 -153 7 -8 30 -55 52 -105 21 -49 81 -182 132 -295 51 -113
100 -228 110 -256 10 -27 32 -84 49 -125 53 -124 68 -161 91 -224 12 -33 26
-69 30 -80 29 -67 60 -154 60 -166 0 -8 -6 -21 -12 -28 -11 -10 -9 -15 8 -29
12 -9 29 -30 37 -47 24 -50 130 -400 163 -540 9 -38 22 -86 29 -105 7 -19 20
-71 30 -115 9 -44 23 -105 30 -135 7 -30 18 -89 25 -130 6 -41 15 -91 20 -110
16 -61 41 -252 44 -330 1 -41 8 -85 15 -98 8 -16 11 -53 8 -120 -6 -117 -6
-115 -6 -174 0 -56 -18 -102 -72 -185 -37 -57 -40 -65 -34 -107 6 -36 3 -57
-14 -95 -28 -66 -32 -114 -8 -119 18 -4 95 69 189 180 41 48 213 171 271 194
25 9 22 -19 -4 -42 -37 -33 -83 -143 -85 -204 -2 -30 -6 -83 -10 -116 -8 -71
4 -304 16 -325 8 -11 17 -11 57 4 96 34 173 13 206 -56 9 -19 17 -41 17 -49 0
-43 -99 -128 -150 -128 -14 0 -34 -6 -43 -13 -16 -11 -13 -22 37 -132 115
-256 118 -261 193 -376 36 -54 203 -201 271 -237 71 -38 167 -64 205 -56 51
11 24 43 -38 44 -58 0 -153 78 -192 157 -22 45 -25 63 -21 123 4 68 5 71 52
117 26 26 50 60 53 76 13 64 141 117 282 117 92 0 143 -19 155 -57 3 -10 33
-31 66 -47 83 -41 104 -84 98 -200 -4 -78 -7 -87 -47 -145 -23 -35 -40 -65
-37 -68 31 -32 263 150 348 273 11 16 36 40 54 52 49 32 60 58 33 79 -50 41
-59 54 -59 87 0 45 33 71 99 80 55 7 51 1 87 136 14 49 18 107 18 235 1 149
-2 180 -23 255 -27 99 -71 229 -95 283 -15 35 -15 37 2 37 10 0 36 -18 57 -41
22 -23 65 -58 96 -79 87 -60 260 -260 275 -318 4 -13 -2 -51 -12 -84 -17 -57
-17 -63 -1 -108 10 -29 15 -60 11 -79 -4 -16 -3 -38 0 -47 6 -15 8 -15 26 1
11 10 25 37 31 59 5 23 15 54 21 70 13 33 65 96 79 96 11 0 32 -77 24 -90 -3
-5 -7 -37 -10 -72 -3 -35 -9 -83 -14 -108 -41 -196 -63 -289 -86 -375 -28
-103 -49 -215 -41 -223 3 -2 8 9 11 24 4 16 12 45 20 64 7 19 22 67 34 105 20
69 27 96 54 226 8 36 17 70 20 75 8 14 29 197 32 279 4 138 17 255 29 262 22
14 82 10 130 -9 27 -10 50 -17 53 -15 2 3 -48 69 -112 147 -135 169 -143 188
-58 158 23 -8 36 -9 44 -1 13 13 -31 67 -72 88 -38 20 -45 35 -64 150 -10 55
-23 111 -29 125 -18 37 -50 180 -77 345 -6 39 -17 90 -24 115 -7 25 -19 74
-26 108 -11 50 -20 68 -41 84 -19 13 -28 28 -28 48 0 16 -9 50 -21 77 -11 26
-22 65 -24 85 -3 20 -9 45 -14 55 -26 47 -61 136 -61 156 0 29 -63 232 -86
277 -22 43 -32 140 -14 140 6 0 24 -7 38 -15 30 -16 142 -62 185 -75 56 -18
24 7 -70 54 -137 67 -195 101 -205 120 -5 9 -15 38 -22 64 -8 26 -19 61 -24
77 -6 17 -28 84 -48 150 -21 66 -45 136 -55 155 -10 20 -29 74 -43 120 -14 47
-34 110 -45 140 -11 30 -54 152 -95 270 -41 118 -84 240 -95 270 -11 30 -38
105 -59 165 -97 271 -194 481 -342 740 -35 61 -78 137 -97 170 -44 77 -70 111
-78 103 -9 -9 19 -89 100 -283 101 -241 176 -466 270 -810 15 -55 35 -130 46
-167 11 -37 26 -104 34 -150 8 -46 22 -114 30 -153 14 -66 32 -175 71 -415 22
-134 28 -240 16 -252 -10 -10 -195 54 -222 77 -29 25 -167 67 -345 105 -83 18
-88 22 -114 82 -13 29 -32 70 -43 90 -10 20 -28 63 -39 95 -10 32 -28 81 -39
108 -10 28 -40 118 -65 200 -53 171 -97 294 -125 346 -11 20 -20 43 -20 50 0
8 -6 25 -13 39 -7 14 -21 48 -31 75 -31 83 -192 428 -239 510 -12 22 -42 76
-67 120 -53 94 -62 110 -115 193 -93 145 -114 175 -186 269 -115 148 -143 164
-84 47 19 -38 35 -73 35 -77 0 -5 17 -39 39 -75 48 -82 93 -197 110 -277 21
-102 40 -165 117 -390 54 -157 76 -225 94 -291 10 -38 34 -130 54 -204 48
-177 90 -367 116 -525 5 -33 14 -82 19 -110 35 -197 35 -196 20 -210 -10 -11
-52 -15 -159 -18 -101 -3 -158 -9 -189 -21 -24 -9 -59 -16 -77 -16 -19 0 -53
-5 -76 -10 -24 -6 -76 -16 -117 -24 -93 -18 -95 -16 -146 130 -34 99 -85 230
-196 505 -35 88 -57 139 -109 254 -10 22 -39 90 -65 150 -25 61 -57 133 -70
160 -13 28 -36 79 -50 115 -15 36 -31 70 -35 75 -4 6 -20 41 -35 78 -15 38
-51 115 -79 170 -29 56 -58 118 -66 137 -8 19 -23 51 -35 70 -12 19 -39 73
-60 120 -21 47 -64 130 -95 185 -32 55 -61 111 -65 125 -4 14 -23 49 -42 78
-19 29 -46 77 -60 108 -62 137 -223 389 -223 350z m1981 -1718 c21 -23 31 -41
147 -273 65 -130 129 -271 142 -313 18 -57 100 -233 123 -264 25 -33 77 -153
77 -177 0 -8 -11 -10 -32 -6 -18 3 -93 7 -166 9 -74 2 -138 8 -144 14 -6 6
-21 75 -33 154 -13 78 -31 181 -40 228 -9 47 -22 145 -30 219 -16 138 -46 305
-64 354 -11 29 -15 77 -6 77 2 0 14 -10 26 -22z m1229 -560 c59 -97 181 -379
255 -590 21 -60 41 -110 91 -227 9 -21 12 -37 6 -43 -6 -6 -59 15 -138 54
-102 50 -130 68 -136 88 -4 14 -12 93 -18 175 -6 83 -16 166 -20 185 -10 36
-57 272 -70 348 -8 50 3 54 30 10z m-1131 -576 c5 -15 12 -70 16 -122 3 -52 8
-113 10 -135 10 -90 6 -771 -4 -798 -6 -16 -11 -56 -11 -89 0 -86 -19 -184
-38 -201 -10 -9 -47 -23 -85 -33 -83 -23 -90 -17 -106 81 -13 83 -27 142 -75
329 -20 76 -36 148 -36 161 0 12 -11 38 -24 58 -14 20 -29 51 -35 69 -25 80
-45 131 -48 121 -3 -7 5 -42 16 -80 28 -97 44 -182 37 -200 -4 -8 1 -55 9
-103 17 -100 37 -261 40 -333 3 -69 15 -70 16 -1 1 64 8 147 14 152 9 9 65
-219 65 -265 0 -28 -34 -47 -67 -38 -19 4 -32 0 -49 -16 -15 -14 -28 -19 -33
-13 -4 5 -13 52 -20 104 -6 52 -18 131 -27 175 -8 44 -19 103 -24 130 -5 28
-19 95 -31 150 -12 55 -32 147 -44 205 -13 58 -32 137 -43 175 -11 39 -34 119
-51 180 -35 126 -58 196 -77 243 -31 72 -19 84 101 103 75 11 541 28 577 21 9
-2 21 -16 27 -30z m325 18 c67 -5 114 -13 122 -22 17 -16 129 -290 155 -378
11 -36 31 -101 45 -145 22 -71 33 -111 72 -270 22 -87 59 -300 69 -392 4 -49
3 -53 -21 -64 -35 -16 -33 -26 8 -43 33 -14 35 -17 38 -72 2 -35 8 -59 15 -62
10 -3 11 11 6 58 -7 71 6 90 44 65 12 -8 32 -15 43 -15 15 0 26 -12 40 -42
l19 -43 0 47 c1 34 6 50 19 57 16 9 15 12 -9 38 -34 36 -55 78 -62 127 -7 42
-31 86 -48 86 -8 0 -10 -31 -8 -97 4 -86 2 -98 -13 -101 -26 -5 -34 26 -47
163 -6 66 -15 134 -20 150 -6 17 -18 71 -27 120 -9 50 -27 129 -40 177 -13 48
-24 95 -24 105 0 9 -17 65 -38 123 -22 58 -47 130 -57 160 -10 30 -33 89 -52
132 -42 96 -42 108 -2 108 51 0 294 -66 424 -116 33 -13 78 -29 99 -36 21 -7
45 -22 52 -33 8 -12 19 -100 29 -230 23 -298 8 -727 -34 -940 -6 -27 -15 -80
-20 -116 -12 -75 -25 -114 -41 -124 -19 -12 -39 15 -45 63 -9 70 -24 122 -37
122 -6 0 -8 -11 -4 -27 17 -77 18 -129 3 -141 -23 -20 -88 -11 -101 13 -6 11
-12 22 -14 24 -1 3 -13 -5 -25 -17 -22 -20 -33 -22 -148 -22 -68 0 -147 6
-175 12 -40 8 -65 7 -122 -6 -40 -9 -129 -27 -199 -41 -71 -13 -147 -30 -170
-37 -58 -17 -71 -4 -50 50 9 21 23 76 31 122 9 46 21 89 27 97 12 14 63 29
194 58 145 32 146 33 50 34 -49 0 -114 -6 -144 -14 -36 -9 -60 -11 -72 -4 -19
10 -19 9 1 144 4 33 9 71 9 85 0 14 5 99 10 189 14 253 4 663 -20 828 -18 123
-35 117 265 93z m1023 -299 c21 -17 66 -41 98 -54 57 -22 62 -26 92 -87 18
-36 37 -83 43 -105 32 -118 74 -246 96 -290 13 -28 24 -59 24 -70 0 -10 11
-55 25 -99 60 -197 94 -315 105 -366 7 -30 19 -75 28 -100 8 -25 21 -70 28
-100 7 -30 22 -88 33 -127 26 -88 28 -143 6 -143 -9 0 -32 8 -53 19 -88 44
-246 88 -442 122 -63 12 -135 25 -160 30 -25 5 -67 12 -93 15 -27 4 -51 13
-54 19 -2 7 3 46 12 86 62 290 80 521 72 956 -4 229 -3 333 5 341 16 16 88 -9
135 -47z m-1387 -1166 c0 -42 -41 -219 -56 -242 -10 -16 -24 -23 -44 -23 -26
0 -30 4 -31 28 0 15 -4 63 -9 107 -9 91 -7 96 59 130 61 32 81 32 81 0z m-186
-87 c7 -13 16 -62 20 -110 6 -85 6 -87 -20 -107 -34 -27 -102 -48 -113 -35 -5
5 -6 53 -2 107 6 98 7 99 43 133 44 40 53 41 72 12z m-64 -312 c0 -20 -39 -66
-56 -66 -19 0 -18 30 2 58 17 24 54 30 54 8z m2172 -40 c29 -13 60 -32 69 -42
19 -22 49 -78 49 -92 0 -15 -68 12 -98 39 -15 14 -53 45 -84 68 -32 24 -58 48
-58 53 0 14 60 2 122 -26z m148 -166 c0 -5 -2 -10 -4 -10 -3 0 -8 5 -11 10 -3
6 -1 10 4 10 6 0 11 -4 11 -10z m-1840 -465 c0 -8 -7 -15 -15 -15 -8 0 -15 7
-15 15 0 8 7 15 15 15 8 0 15 -7 15 -15z"/>
<path d="M10715 9282 c-22 -2 -44 -8 -50 -14 -10 -10 54 -5 155 12 l45 8 -55
-2 c-30 0 -73 -2 -95 -4z"/>
<path d="M11094 9178 c-10 -16 -15 -138 -5 -138 15 0 31 51 31 100 0 48 -11
63 -26 38z"/>
<path d="M14600 13366 c0 -3 15 -15 33 -27 l32 -23 -24 27 c-22 24 -41 35 -41
23z"/>
<path d="M14770 13235 c7 -8 17 -15 22 -15 6 0 5 7 -2 15 -7 8 -17 15 -22 15
-6 0 -5 -7 2 -15z"/>
<path d="M5409 13218 c-1 -7 -3 -33 -5 -58 -5 -50 -4 -313 1 -435 15 -348 25
-527 30 -535 2 -4 6 -44 9 -91 3 -46 10 -118 15 -159 18 -131 51 -362 67 -465
8 -55 19 -179 24 -275 21 -394 30 -512 50 -655 21 -143 43 -236 62 -261 5 -7
15 -49 23 -95 8 -46 19 -104 25 -129 5 -25 14 -67 19 -95 5 -27 19 -88 31
-135 31 -119 40 -159 47 -207 l6 -43 -77 -35 c-43 -19 -82 -35 -88 -35 -6 0
-19 -6 -27 -14 -9 -7 -41 -27 -71 -43 -30 -17 -93 -53 -139 -82 -46 -28 -96
-51 -110 -51 -19 0 -33 -10 -51 -36 -29 -43 -162 -144 -189 -144 -12 0 -23 12
-31 33 -7 17 -19 46 -26 62 -27 62 -136 353 -156 415 -11 36 -29 85 -39 110
-10 25 -27 74 -38 110 -11 36 -32 103 -46 150 -48 153 -66 214 -80 265 -7 28
-23 84 -35 125 -11 41 -25 93 -29 115 -5 22 -19 83 -31 135 -13 52 -26 115
-31 140 -5 25 -13 68 -18 95 -5 28 -17 93 -25 145 -9 52 -21 122 -27 155 -6
33 -14 78 -17 99 -4 22 -13 41 -19 44 -18 5 -17 -107 3 -229 11 -71 12 -103 5
-118 -15 -28 -14 -161 4 -294 8 -63 17 -179 20 -258 2 -79 9 -178 15 -219 6
-41 17 -136 25 -210 35 -337 41 -378 94 -685 58 -330 58 -331 76 -410 30 -135
31 -129 -6 -169 -35 -36 -89 -59 -89 -36 0 6 -11 26 -25 44 -14 18 -25 38 -25
44 0 6 -5 23 -12 37 -12 27 -48 35 -48 9 0 -8 5 -12 10 -9 19 12 10 -11 -19
-51 l-30 -40 24 -52 c13 -29 29 -52 35 -52 16 0 12 -17 -6 -24 -8 -3 -24 -1
-35 5 -18 9 -19 7 -14 -18 6 -25 5 -26 -8 -10 -8 9 -22 17 -31 17 -9 0 -16 5
-16 10 0 6 -8 19 -17 29 -23 24 -80 17 -88 -10 -4 -10 -11 -19 -16 -19 -14 0
-8 -51 9 -72 9 -11 10 -18 2 -23 -7 -4 -8 -11 -2 -18 15 -20 21 -57 9 -64 -10
-6 -67 49 -67 66 0 6 9 13 21 16 20 7 20 8 3 26 -10 11 -23 18 -29 15 -20 -7
-30 7 -50 73 -11 36 -30 76 -42 89 -13 14 -23 33 -23 43 0 9 -13 47 -30 83
-16 37 -34 85 -41 109 -6 23 -19 56 -29 72 -10 17 -21 46 -25 65 -7 37 -34
135 -65 240 -38 131 -77 306 -106 475 -9 55 -21 118 -26 140 -5 22 -15 76 -23
120 -8 44 -18 103 -24 130 -5 28 -17 89 -26 138 -10 48 -21 87 -25 87 -11 0
-33 -57 -27 -67 3 -5 13 -94 22 -199 9 -104 20 -202 25 -219 17 -58 39 -171
51 -260 6 -50 18 -100 25 -112 7 -12 21 -61 30 -110 9 -48 29 -131 45 -183 78
-263 94 -325 90 -352 -1 -9 7 -34 18 -56 26 -51 68 -291 55 -313 -2 -4 -14 -4
-27 -2 -22 4 -25 1 -30 -37 -3 -24 0 -55 8 -73 7 -18 15 -56 19 -85 4 -29 15
-80 25 -115 36 -123 46 -184 46 -287 0 -84 3 -108 16 -120 20 -18 35 -73 59
-205 10 -55 35 -158 55 -230 21 -71 43 -150 50 -175 7 -25 18 -58 25 -75 6
-16 22 -68 35 -115 26 -96 47 -156 75 -217 11 -24 20 -46 20 -50 0 -39 255
-560 333 -680 30 -45 72 -106 94 -135 22 -30 55 -81 73 -113 19 -33 47 -74 64
-91 17 -16 62 -70 101 -120 132 -169 340 -391 420 -450 22 -16 81 -63 130
-105 50 -42 108 -85 130 -97 22 -11 51 -32 65 -47 27 -29 164 -99 182 -93 12
4 -108 96 -176 136 -21 12 -54 35 -72 50 -19 15 -68 54 -110 87 -116 91 -264
226 -325 297 -30 35 -85 110 -123 168 -38 58 -92 138 -119 179 -60 89 -76 161
-37 161 13 0 49 -23 84 -53 34 -29 81 -65 106 -79 25 -14 63 -40 85 -58 45
-36 147 -90 170 -90 22 0 18 27 -6 48 -68 55 -101 103 -153 221 -34 78 -36 88
-27 130 6 25 13 66 17 91 8 60 51 222 75 284 10 28 19 58 19 67 0 41 108 239
130 239 6 0 10 -38 10 -87 0 -110 46 -330 75 -362 11 -11 20 -11 46 -2 104 36
209 -19 209 -110 0 -46 -46 -98 -100 -114 -53 -15 -50 -40 17 -125 196 -250
358 -360 635 -430 45 -12 107 -26 136 -30 57 -10 136 0 155 20 13 12 -6 31
-127 127 -102 82 -139 176 -102 264 9 21 11 42 5 61 -10 37 -1 61 51 131 61
81 137 128 257 158 49 12 56 11 101 -10 38 -18 59 -22 88 -17 34 6 46 3 80
-22 91 -66 142 -175 128 -271 -7 -47 -51 -148 -101 -233 -51 -85 -3 -75 55 11
69 104 173 387 158 428 -3 8 -25 22 -50 32 -45 20 -76 53 -76 82 0 26 49 79
72 79 10 0 28 5 39 10 24 13 25 69 4 233 -24 180 -78 333 -148 420 -19 23 -49
70 -65 104 -42 83 -133 188 -201 230 -31 20 -69 48 -86 64 -16 16 -43 39 -60
53 l-30 24 39 7 c76 15 225 -2 356 -39 69 -20 133 -36 143 -36 33 0 13 21 -50
55 -34 18 -75 42 -90 53 -15 11 -45 27 -65 35 -51 21 -48 31 7 25 56 -7 59 8
11 49 -30 27 -67 41 -281 108 -56 18 -54 32 7 40 72 8 161 26 173 33 20 12
-73 21 -231 21 -140 1 -163 3 -176 19 -22 24 -78 138 -78 157 0 24 38 33 162
41 62 4 122 10 133 15 l20 8 -20 2 c-11 1 -78 1 -148 -1 -138 -2 -157 4 -157
47 0 19 -4 24 -16 19 -28 -11 -51 12 -75 76 -12 35 -38 97 -57 138 -81 178
-219 600 -322 985 -10 39 -28 106 -40 149 -12 44 -19 90 -16 101 3 13 22 29
46 40 22 10 46 25 53 33 10 13 7 14 -23 8 -94 -19 -98 -19 -104 1 -6 18 -15
63 -77 348 -59 275 -97 483 -104 562 -5 49 -4 64 4 53 6 -8 11 -23 11 -33 0
-10 21 -71 46 -135 25 -64 61 -160 79 -212 19 -52 48 -133 65 -180 17 -47 35
-98 39 -115 5 -16 27 -74 50 -128 25 -58 41 -109 39 -126 -2 -21 5 -36 28 -57
18 -17 38 -52 49 -84 10 -30 23 -62 30 -70 6 -8 24 -44 39 -80 15 -36 31 -72
36 -80 6 -8 24 -42 41 -75 17 -32 41 -75 54 -95 12 -19 42 -73 67 -120 122
-227 366 -586 487 -715 26 -27 65 -72 86 -100 22 -27 107 -120 189 -205 399
-413 416 -429 416 -382 0 22 -46 77 -151 182 -96 95 -198 236 -266 367 -25 48
-55 106 -67 128 -13 22 -36 72 -51 110 -16 39 -32 75 -36 80 -4 6 -42 103 -83
215 -81 224 -161 520 -138 520 4 0 36 -59 72 -132 36 -72 89 -172 119 -222 86
-146 293 -453 373 -553 40 -50 98 -124 128 -163 131 -171 193 -243 322 -372
148 -149 267 -235 463 -336 153 -79 345 -142 345 -114 0 11 -69 44 -150 73
-36 12 -69 26 -75 30 -5 4 -55 30 -110 59 -55 28 -116 61 -136 73 -96 59 -226
169 -334 284 -66 69 -142 149 -169 177 -26 28 -72 87 -101 131 -29 44 -74 105
-100 135 -27 30 -74 93 -105 140 -31 47 -71 105 -89 130 -35 50 -32 46 -143
215 -43 66 -86 132 -97 146 -11 14 -37 61 -59 105 -22 43 -54 105 -71 138 -75
139 -156 403 -170 548 -8 85 -12 94 -37 84 -26 -10 -13 -230 25 -421 44 -219
104 -446 151 -570 16 -44 35 -109 41 -144 13 -70 86 -250 149 -366 38 -68 49
-105 32 -105 -8 0 -129 138 -174 199 -82 110 -178 261 -187 296 -6 22 -24 55
-41 73 -30 33 -40 77 -19 84 6 2 2 14 -10 30 -12 14 -21 34 -21 45 0 10 -27
52 -60 93 -32 41 -98 134 -147 205 -48 72 -108 155 -133 185 -25 30 -56 82
-69 115 -25 64 -33 82 -79 190 -67 156 -81 193 -100 255 -11 36 -32 97 -46
135 -44 117 -187 584 -201 655 -4 19 -18 82 -32 140 -14 58 -29 128 -33 155
-5 28 -16 79 -24 115 -9 36 -20 94 -26 130 -6 36 -14 88 -19 115 -5 28 -23
145 -40 260 -17 116 -35 237 -41 270 -5 33 -17 112 -25 175 -9 63 -20 138 -25
165 -8 43 -25 285 -36 505 -1 36 -3 156 -3 268 -1 127 -5 202 -11 202 -5 0
-10 -6 -11 -12z m-820 -2918 c25 -110 26 -113 81 -290 94 -299 217 -646 253
-715 15 -27 27 -54 27 -58 0 -5 14 -40 30 -78 22 -50 28 -74 21 -87 -11 -20
-166 -164 -221 -204 -48 -35 -53 -30 -74 87 -8 50 -22 124 -30 165 -32 164
-46 250 -57 355 -6 61 -15 120 -19 132 -5 12 -16 95 -24 185 -9 90 -20 208
-26 263 -6 55 -10 161 -10 235 0 160 14 163 49 10z m1250 -808 c5 -10 18 -52
29 -93 11 -40 27 -99 37 -129 9 -30 21 -73 26 -95 5 -22 18 -62 29 -90 10 -27
31 -94 45 -147 15 -54 36 -121 47 -150 33 -88 118 -349 118 -364 0 -12 -3 -13
-15 -2 -33 27 -65 63 -65 72 0 13 -25 68 -120 261 -43 88 -97 201 -120 250
-63 134 -101 208 -116 225 -34 35 -7 -65 48 -180 16 -36 36 -81 43 -100 7 -19
40 -89 73 -155 33 -65 59 -122 56 -126 -10 -17 -80 13 -123 53 -25 24 -65 57
-88 72 -22 15 -80 60 -126 100 -161 138 -280 293 -257 335 20 39 236 171 279
171 20 0 34 8 45 25 14 21 115 83 138 85 4 0 12 -8 17 -18z m-536 -390 c8 -31
23 -94 32 -140 11 -57 37 -125 84 -225 38 -78 104 -218 147 -311 42 -93 89
-190 102 -215 13 -25 40 -81 58 -123 32 -75 32 -77 10 -63 -62 41 -308 374
-381 515 -10 19 -28 49 -40 65 -12 17 -40 66 -62 110 -22 44 -54 103 -71 131
-16 28 -33 62 -37 75 -4 13 -13 31 -21 39 -7 9 -16 34 -20 56 -6 39 -4 42 37
76 55 45 117 78 134 72 6 -3 19 -31 28 -62z m-192 -219 c107 -206 134 -256
194 -357 53 -90 152 -235 232 -339 18 -23 44 -58 57 -77 13 -19 72 -84 130
-145 58 -60 106 -115 106 -122 0 -7 -22 -29 -50 -49 -27 -20 -50 -38 -50 -40
0 -6 32 8 65 28 50 30 88 24 128 -21 43 -48 59 -75 52 -93 -3 -7 -34 -32 -68
-56 -263 -180 -373 -263 -501 -379 -52 -48 -100 -83 -112 -83 -23 0 -21 -4
-126 225 -68 145 -149 372 -233 645 -66 218 -158 572 -177 685 -10 56 -9 60
13 78 22 16 95 81 203 179 23 21 49 38 58 38 12 0 36 -37 79 -117z m-397 -205
c25 -126 59 -269 77 -323 26 -75 49 -167 49 -192 l0 -27 -31 30 c-50 47 -93
123 -123 219 -16 50 -36 101 -46 115 -9 14 -21 43 -28 64 -12 44 -6 63 36 109
31 33 60 35 66 5z m889 -143 c20 -30 37 -58 37 -61 0 -23 194 -284 323 -433
37 -44 67 -86 67 -94 0 -9 -12 -25 -27 -37 l-28 -22 37 7 c21 4 48 5 61 1 27
-6 157 -132 157 -151 0 -19 -55 -35 -117 -35 -53 0 -57 2 -115 57 -49 48 -59
62 -56 84 4 23 0 28 -21 33 -18 3 -37 23 -62 63 -57 91 -217 408 -261 518 -22
55 -42 106 -45 113 -13 32 17 6 50 -43z m-1583 -76 c0 -5 -4 -9 -10 -9 -5 0
-10 7 -10 16 0 8 5 12 10 9 6 -3 10 -10 10 -16z m262 -61 c-7 -7 -12 -8 -12
-2 0 14 12 26 19 19 2 -3 -1 -11 -7 -17z m-110 -79 c13 -23 28 -51 34 -61 8
-13 9 -31 3 -50 -10 -38 -14 -42 -32 -35 -12 4 -47 133 -47 172 0 28 19 15 42
-26z m1999 10 c10 -13 19 -34 19 -45 0 -12 7 -24 15 -27 16 -7 85 -137 85
-161 0 -16 -49 -46 -75 -46 -9 0 -38 -12 -66 -26 -28 -14 -54 -24 -59 -22 -9
4 -110 129 -110 137 0 4 7 17 16 30 12 16 19 20 27 12 16 -16 23 -14 35 14 16
34 15 40 -4 59 -14 15 -14 18 4 43 10 16 21 35 24 43 9 24 67 17 89 -11z
m-1882 -229 c41 -75 53 -92 136 -198 103 -130 139 -179 165 -222 24 -40 44
-68 112 -159 75 -100 258 -312 345 -399 51 -52 93 -98 93 -103 0 -6 -37 -52
-83 -102 -173 -193 -197 -244 -89 -187 31 16 58 27 60 25 3 -2 -20 -48 -51
-102 -97 -173 -119 -222 -182 -400 -8 -23 -32 -2 -52 45 -12 26 -35 81 -53
122 -18 41 -48 111 -67 155 -39 91 -84 208 -118 310 -13 39 -37 104 -53 145
-17 41 -46 127 -66 190 -19 63 -50 167 -70 230 -76 252 -126 486 -128 606 -1
68 20 118 49 112 9 -2 32 -32 52 -68z m2081 -154 c29 -36 88 -142 81 -148 -4
-4 -29 -12 -56 -18 -28 -5 -59 -12 -70 -15 -16 -5 -36 10 -89 65 -79 81 -78
91 10 115 66 18 109 18 124 1z m-480 -1381 c18 -21 5 -47 -22 -43 -26 3 -37
36 -16 49 18 12 24 11 38 -6z m-969 -337 c-6 -45 -11 -110 -11 -145 0 -62 -4
-70 -26 -55 -18 11 -64 109 -64 134 0 34 100 182 108 160 2 -7 -1 -49 -7 -94z"/>
<path d="M5670 9344 c1 -16 29 -60 29 -44 0 8 -6 24 -14 34 -8 11 -15 16 -15
10z"/>
<path d="M15483 12206 c-22 -26 -68 -42 -137 -49 -23 -3 -43 -12 -49 -22 -21
-39 -81 -95 -120 -114 -23 -11 -76 -23 -117 -27 -55 -5 -85 -14 -113 -33 -33
-21 -57 -26 -165 -35 -72 -6 -127 -15 -127 -21 1 -5 7 -36 14 -69 18 -81 8
-138 -33 -184 -23 -26 -36 -55 -45 -97 -24 -112 -69 -179 -129 -190 -47 -9
-58 -18 -88 -76 -33 -65 -89 -118 -141 -132 -24 -6 -43 -15 -43 -19 0 -4 19
-11 43 -14 39 -7 65 -30 422 -388 209 -210 398 -407 419 -438 22 -32 42 -58
46 -58 9 0 117 -132 201 -245 37 -49 76 -102 87 -116 88 -111 314 -464 405
-629 17 -30 38 -66 47 -80 23 -34 250 -488 250 -500 0 -6 11 -27 24 -48 14
-20 28 -50 32 -67 8 -34 25 -74 99 -235 37 -79 73 -184 116 -335 100 -356 119
-449 120 -596 1 -85 -2 -100 -30 -161 -17 -36 -36 -70 -42 -74 -6 -3 -20 -27
-32 -53 -11 -25 -32 -64 -47 -86 -35 -52 -73 -126 -67 -132 6 -6 53 62 107
157 24 41 54 93 66 115 13 22 33 58 45 80 12 22 29 51 39 65 15 22 150 263
217 388 17 32 23 59 23 108 0 36 -4 64 -10 64 -5 0 -10 -5 -10 -11 0 -5 -18
-47 -40 -93 -22 -45 -40 -85 -40 -89 0 -11 -103 -187 -110 -187 -8 0 -24 66
-45 190 -10 52 -24 110 -31 128 -8 18 -14 48 -14 67 0 19 -11 59 -25 89 -14
30 -25 65 -25 78 0 13 -7 32 -15 42 -8 11 -15 36 -15 56 0 19 -8 47 -17 60
-23 32 -45 89 -44 114 0 18 -29 98 -50 138 -5 10 -9 43 -9 74 0 39 -7 70 -24
103 -13 25 -34 80 -46 121 -23 76 -48 142 -80 215 -10 22 -21 51 -25 65 -10
35 -211 445 -241 491 -13 20 -32 61 -42 91 -11 29 -42 112 -69 183 -28 72 -63
166 -78 210 -16 44 -50 124 -77 177 -26 53 -48 102 -48 110 0 7 -16 40 -35 73
-19 33 -49 89 -66 125 -18 36 -47 86 -66 111 -18 26 -33 50 -33 54 0 5 -10 22
-23 39 -26 35 -52 94 -45 101 6 6 76 -44 153 -110 33 -28 103 -84 155 -125
136 -105 238 -189 286 -235 42 -41 76 -68 263 -211 216 -165 278 -222 312
-280 50 -86 108 -214 139 -309 19 -55 41 -122 51 -150 10 -27 23 -70 29 -95 7
-25 21 -72 31 -105 23 -76 38 -152 48 -238 5 -38 13 -73 20 -80 8 -8 11 78 11
346 0 231 -4 357 -10 357 -5 0 -10 8 -10 18 0 9 -12 37 -26 62 -15 25 -42 74
-61 110 -79 146 -210 352 -296 467 -18 23 -52 70 -77 103 -25 34 -61 81 -80
105 -19 23 -53 68 -75 100 -107 152 -296 368 -431 490 -54 50 -126 115 -159
147 -102 96 -264 231 -342 285 -97 67 -125 91 -118 103 4 6 27 21 53 34 54 28
75 49 127 128 37 56 58 71 125 83 55 11 188 84 248 137 30 26 65 48 76 48 21
0 61 -22 81 -45 18 -20 129 -111 158 -129 47 -29 42 -11 -9 30 -66 55 -147
123 -159 134 -5 6 -68 67 -138 138 -70 70 -133 128 -140 130 -7 1 -23 -9 -34
-22z m-794 -1228 c43 -46 118 -128 167 -183 49 -55 131 -143 183 -197 52 -54
105 -114 119 -135 14 -21 42 -58 62 -83 20 -25 67 -90 104 -145 36 -55 100
-149 141 -210 152 -224 203 -310 277 -464 173 -360 191 -401 175 -401 -4 0
-67 102 -142 228 -160 266 -231 373 -410 616 -68 93 -311 382 -395 471 -137
144 -438 452 -467 478 -18 16 -33 35 -33 43 0 16 84 61 118 63 17 1 44 -21
101 -81z"/>
<path d="M16150 11632 c0 -15 160 -156 167 -148 4 3 -13 27 -38 52 -49 51
-129 110 -129 96z"/>
<path d="M16435 11380 c10 -11 20 -20 23 -20 3 0 -3 9 -13 20 -10 11 -20 20
-23 20 -3 0 3 -9 13 -20z"/>
<path d="M16500 11322 c0 -12 19 -26 26 -19 2 2 -2 10 -11 17 -9 8 -15 8 -15
2z"/>
<path d="M16550 10883 c0 -7 4 -15 10 -18 5 -3 24 -35 42 -72 18 -36 47 -82
64 -102 18 -20 46 -64 64 -96 44 -83 50 -87 50 -32 0 36 -6 54 -24 75 -14 15
-42 52 -63 83 -47 68 -143 177 -143 162z"/>
<path d="M8687 8965 c-10 -56 -9 -123 2 -129 12 -8 18 51 11 115 l-5 54 -8
-40z"/>
<path d="M8677 8758 c-4 -35 -12 -127 -17 -206 -6 -79 -15 -155 -20 -168 -6
-14 -10 -46 -10 -72 -1 -26 -7 -76 -15 -112 -8 -36 -14 -77 -15 -92 0 -31 14
-37 24 -12 10 26 39 234 41 289 1 28 7 75 13 105 7 30 11 71 10 90 -1 19 1 76
5 125 9 105 -6 153 -16 53z"/>
<path d="M16765 8601 c-3 -5 -1 -12 5 -16 5 -3 10 1 10 9 0 18 -6 21 -15 7z"/>
<path d="M3227 8497 c-6 -16 14 -144 33 -208 5 -20 12 -123 14 -230 3 -107 9
-230 15 -274 6 -44 13 -105 15 -135 2 -30 9 -82 15 -115 7 -33 16 -85 20 -115
12 -78 31 -167 46 -220 19 -63 26 -133 15 -150 -11 -18 -7 -25 -72 110 -65
134 -87 196 -123 340 -14 58 -32 125 -40 150 -16 51 -44 153 -75 280 -34 138
-47 183 -64 220 -16 35 -16 34 -10 -50 3 -47 9 -98 14 -115 5 -16 14 -64 20
-105 14 -94 52 -284 80 -405 10 -44 30 -130 55 -245 42 -189 48 -217 61 -250
8 -19 26 -82 40 -140 14 -57 36 -132 49 -165 12 -33 42 -121 67 -195 61 -183
153 -443 167 -466 6 -10 35 -77 65 -149 30 -71 73 -166 96 -210 51 -100 104
-217 140 -315 16 -41 42 -103 59 -137 18 -33 38 -83 45 -110 8 -26 28 -81 45
-122 17 -40 31 -82 31 -92 0 -11 7 -36 16 -57 10 -20 25 -57 34 -82 34 -87 97
-235 115 -269 20 -39 59 -140 84 -221 10 -30 29 -73 43 -95 13 -22 32 -59 41
-83 9 -23 27 -59 40 -80 13 -20 34 -58 46 -84 13 -27 27 -50 32 -53 4 -3 29
-45 55 -93 26 -48 75 -134 109 -192 34 -58 65 -115 69 -126 4 -12 29 -60 56
-105 27 -46 54 -92 60 -101 15 -26 30 -22 30 7 0 14 3 25 6 25 13 0 64 -42 65
-53 0 -20 104 -154 318 -412 146 -176 552 -577 657 -649 18 -11 74 -53 125
-93 125 -96 301 -218 369 -256 30 -17 62 -36 70 -43 14 -11 85 -43 234 -105
37 -16 86 -29 109 -29 22 0 66 -9 96 -19 31 -10 83 -27 116 -36 33 -9 71 -21
85 -25 14 -5 88 -20 165 -35 77 -14 163 -30 190 -36 102 -19 318 -37 342 -28
14 5 41 9 61 9 20 0 43 4 51 9 14 9 3 14 -171 70 -54 17 -104 34 -113 37 -28
11 -15 -15 16 -32 23 -12 28 -19 20 -27 -14 -14 -93 -12 -201 7 -47 8 -141 24
-210 36 -69 12 -163 32 -210 46 -92 27 -157 44 -265 69 -38 9 -86 25 -105 36
-19 10 -69 34 -110 52 -78 35 -206 109 -275 159 -106 77 -178 126 -227 156
-29 18 -72 50 -94 70 -23 20 -88 75 -145 122 -115 95 -458 432 -504 496 -16
23 -70 84 -118 136 -48 52 -95 105 -104 118 -9 13 -25 32 -35 42 -10 10 -18
22 -18 28 0 5 -14 25 -31 44 -36 42 -57 71 -135 186 -144 214 -201 310 -254
430 -22 52 -50 111 -61 130 -30 52 -46 90 -60 140 -7 25 -22 65 -35 90 -28 58
-55 120 -83 195 -39 104 -84 189 -109 209 -48 38 -73 72 -79 109 -3 20 -10 40
-14 43 -5 3 -9 16 -9 29 0 12 -7 25 -15 29 -8 3 -15 12 -15 19 0 7 -11 36 -25
63 -29 58 -32 84 -7 84 9 0 26 3 37 6 16 4 25 -3 41 -33 12 -23 28 -39 42 -41
12 -2 34 -19 48 -38 15 -19 36 -34 48 -35 11 0 35 -9 51 -20 17 -11 38 -22 48
-25 9 -4 17 -10 17 -15 0 -5 11 -9 25 -9 14 0 25 -4 25 -9 0 -4 17 -11 37 -14
42 -7 64 6 45 25 -22 22 -14 48 13 48 14 0 25 -4 25 -10 0 -5 8 -10 17 -10 9
0 24 -7 34 -16 12 -10 25 -14 36 -9 49 21 89 9 120 -35 13 -18 13 -24 2 -31
-10 -6 -6 -11 14 -18 15 -6 32 -22 37 -36 5 -14 16 -25 23 -25 8 0 22 -9 32
-20 19 -21 50 -26 60 -10 3 6 24 10 45 10 21 0 42 -4 45 -10 10 -16 25 -12 19
5 -8 20 20 29 46 15 15 -8 25 -9 29 -2 3 5 15 11 26 13 12 3 20 13 21 25 2 42
34 63 34 23 0 -14 5 -19 15 -16 8 4 17 2 20 -3 4 -6 13 -10 22 -10 14 0 13 3
-3 23 -18 21 -18 21 8 -2 26 -22 27 -23 56 -6 26 16 29 21 22 51 -11 49 2 57
38 24 12 -12 22 -31 22 -44 0 -13 7 -30 16 -37 23 -19 57 -75 78 -129 10 -25
25 -54 35 -65 10 -11 42 -64 71 -118 30 -55 84 -134 121 -176 37 -42 90 -111
118 -153 28 -42 63 -89 78 -105 16 -16 37 -44 48 -63 48 -84 73 -120 117 -171
26 -30 75 -91 110 -135 171 -221 529 -606 744 -801 43 -39 102 -91 129 -116
50 -45 233 -191 320 -257 26 -19 56 -45 68 -58 11 -12 25 -22 30 -22 13 0 69
-41 63 -47 -2 -2 -40 16 -83 41 -43 24 -96 49 -118 54 -22 5 -49 13 -60 18
-11 4 2 -11 28 -34 27 -23 54 -42 61 -42 7 0 28 -11 47 -25 58 -44 190 -111
269 -138 87 -30 345 -97 369 -97 9 0 -42 30 -114 65 -71 36 -137 69 -145 74
-8 6 -58 30 -110 56 -111 53 -210 122 -210 146 0 9 6 21 13 26 12 10 76 28
132 37 42 7 163 -10 181 -25 13 -10 12 -14 -3 -31 -10 -11 -35 -29 -55 -39
-21 -11 -38 -23 -38 -27 0 -17 129 -111 166 -121 60 -17 61 -14 16 29 -22 22
-50 40 -61 40 -10 0 -29 9 -42 19 -24 19 -24 19 -5 40 11 12 44 33 75 48 31
15 83 46 116 69 33 23 83 54 110 70 28 15 67 41 87 57 21 17 60 44 87 61 130
82 336 266 297 266 -10 0 -52 -31 -94 -69 -43 -38 -95 -82 -118 -97 -22 -16
-68 -49 -101 -74 -63 -46 -129 -89 -268 -173 -88 -53 -81 -53 -263 -27 -81 11
-151 1 -214 -31 -21 -11 -48 -19 -60 -19 -14 0 -71 38 -138 91 -63 50 -139
109 -169 132 -30 22 -89 71 -131 108 -102 90 -520 508 -520 520 0 5 -24 34
-52 63 -29 30 -87 95 -128 146 -41 50 -97 117 -123 148 -27 31 -77 98 -112
147 -34 50 -77 107 -94 129 -17 21 -31 46 -31 54 0 8 24 38 53 66 29 28 69 71
89 96 44 56 44 56 195 -77 101 -88 131 -107 285 -186 187 -94 393 -164 663
-223 158 -34 549 -69 885 -79 l195 -6 32 -37 c29 -33 71 -125 209 -451 24 -57
44 -112 44 -121 0 -9 13 -34 29 -56 16 -21 32 -50 35 -64 12 -44 39 -100 48
-100 12 0 11 3 -18 67 -14 32 -27 78 -30 103 -5 43 -38 128 -144 375 -26 61
-51 121 -55 135 -4 14 -18 44 -32 68 -13 24 -22 49 -20 56 3 7 29 16 59 20 84
12 470 16 503 6 17 -5 107 -10 200 -12 204 -3 363 17 449 56 31 14 63 26 70
26 22 0 126 58 165 91 20 17 99 71 176 119 167 106 176 112 260 173 82 59 181
111 195 102 5 -3 10 -14 10 -24 0 -10 8 -45 19 -77 10 -33 22 -88 25 -124 4
-36 11 -85 16 -110 5 -25 19 -92 30 -150 10 -58 28 -141 38 -185 11 -44 25
-107 32 -140 25 -122 60 -212 60 -155 0 13 -6 49 -14 79 -24 96 -36 161 -36
203 l0 40 133 -7 c162 -9 464 -7 503 4 20 5 28 13 26 26 -5 24 62 91 121 121
47 24 61 44 32 44 -34 0 -115 -52 -174 -112 l-63 -63 -66 -1 c-132 -1 -481 16
-505 25 -14 6 -31 19 -37 30 -22 42 -90 488 -90 593 l0 57 83 54 c78 51 170
115 247 172 92 69 159 120 206 155 115 87 368 358 555 596 135 171 250 395
314 612 22 72 42 75 147 24 46 -22 103 -46 128 -52 25 -7 53 -19 63 -28 16
-14 19 -14 28 -2 5 8 7 28 4 44 -3 16 -5 43 -6 60 l-1 31 -9 -32 c-10 -35 -32
-46 -69 -35 -49 14 -209 96 -214 108 -3 7 12 68 34 136 65 208 83 281 85 338
3 91 84 475 124 586 28 80 39 66 39 -48 0 -57 5 -175 10 -263 7 -132 6 -167
-6 -200 -7 -22 -19 -62 -25 -88 -10 -44 -9 -53 13 -95 19 -36 24 -58 22 -98
-4 -61 13 -81 22 -26 4 20 9 210 12 421 4 373 4 386 -17 427 -21 45 -23 66
-16 239 3 92 7 107 44 185 22 47 52 119 67 160 15 41 40 109 55 150 33 85 47
135 61 203 21 102 30 139 35 147 3 4 2 22 -2 40 -8 44 -13 33 -67 -150 -68
-234 -100 -327 -144 -421 -22 -47 -43 -97 -47 -110 -27 -88 -152 -330 -224
-434 -19 -27 -55 -79 -80 -115 -24 -36 -68 -89 -97 -118 -52 -53 -72 -87 -59
-100 4 -4 21 9 38 29 18 19 58 64 89 100 32 35 87 111 123 169 35 58 80 131
100 163 19 31 39 57 44 57 23 0 21 -44 -4 -105 -26 -67 -78 -250 -96 -345 -6
-30 -19 -95 -30 -145 -10 -49 -23 -119 -29 -155 -34 -208 -127 -518 -210 -705
-12 -27 -38 -88 -57 -134 -77 -190 -131 -280 -302 -507 -103 -137 -319 -362
-454 -473 -128 -105 -346 -259 -439 -309 -34 -19 -106 -65 -159 -103 -54 -38
-109 -73 -122 -78 -23 -9 -143 -83 -212 -131 -119 -83 -269 -177 -334 -209
-152 -76 -294 -134 -359 -148 -97 -20 -917 -39 -1072 -24 -114 11 -248 19
-430 26 -52 2 -160 6 -240 9 -335 13 -446 28 -585 76 -44 15 -105 33 -135 39
-193 44 -418 138 -545 230 -141 102 -247 190 -276 230 -17 22 -45 49 -62 60
-31 19 -305 299 -416 426 -29 33 -94 100 -144 150 -198 194 -316 375 -246 375
11 0 29 -5 41 -11 11 -6 21 -9 23 -7 2 2 -30 22 -72 43 -107 55 -141 79 -230
165 -43 42 -89 85 -103 95 -53 41 -322 340 -370 411 -8 12 -54 78 -102 146
-48 67 -105 148 -126 178 -61 87 -142 210 -142 216 0 3 -26 49 -57 102 -79
135 -203 373 -203 390 0 4 -9 25 -20 47 -11 22 -20 47 -20 57 0 10 -7 29 -15
42 -9 13 -20 36 -25 52 -5 16 -36 108 -70 204 -34 96 -65 192 -71 212 -9 36
-22 70 -67 168 l-21 45 0 -38 c-1 -20 10 -79 23 -130 14 -50 32 -126 41 -167
9 -41 23 -84 29 -95 7 -11 16 -36 19 -55 4 -19 23 -84 42 -143 19 -59 35 -117
35 -129 0 -20 -1 -20 -18 -4 -28 25 -149 208 -157 236 -3 14 -24 66 -45 115
-64 151 -117 284 -165 415 -25 69 -53 141 -61 160 -24 53 -90 254 -119 360
-14 52 -32 118 -40 145 -7 28 -20 74 -28 103 -17 61 -40 94 -50 69z m1813
-3293 c0 -8 -5 -12 -10 -9 -6 4 -8 11 -5 16 9 14 15 11 15 -7z m200 -226 c0
-16 -3 -19 -11 -11 -6 6 -8 16 -5 22 11 17 16 13 16 -11z m117 -138 c19 0 11
-24 -9 -28 -9 -2 -18 6 -21 17 -5 21 5 40 11 22 2 -6 10 -11 19 -11z m-57 0
c0 -12 -28 -25 -36 -17 -9 9 6 27 22 27 8 0 14 -5 14 -10z m12 -53 c0 -4 -2
-30 -6 -57 -7 -51 -26 -70 -26 -25 0 14 -4 25 -9 25 -4 0 -3 16 3 35 6 20 17
34 24 33 7 -2 13 -6 14 -11z m374 -179 c82 -88 220 -237 307 -330 86 -94 157
-178 157 -188 0 -10 -20 -44 -43 -76 -71 -96 -102 -114 -140 -84 -23 18 -157
222 -157 239 0 4 -13 25 -30 47 -16 21 -30 44 -30 50 0 6 -13 29 -28 50 -44
61 -109 187 -158 306 -43 104 -53 148 -35 148 5 0 76 -73 157 -162z m-256 123
c14 -27 13 -31 -9 -31 -10 0 -21 9 -24 19 -9 35 16 43 33 12z m-470 -21 c0 -5
-4 -10 -10 -10 -5 0 -10 5 -10 10 0 6 5 10 10 10 6 0 10 -4 10 -10z m70 -35
c7 -14 10 -28 6 -32 -9 -9 -36 25 -36 44 0 21 16 15 30 -12z m-30 -75 c0 -13
-7 -20 -20 -20 -23 0 -26 10 -8 28 18 18 28 15 28 -8z m50 -35 c7 -9 10 -18 7
-22 -8 -7 -37 15 -37 28 0 14 16 11 30 -6z"/>
<path d="M5285 4730 c3 -5 8 -10 11 -10 2 0 4 5 4 10 0 6 -5 10 -11 10 -5 0
-7 -4 -4 -10z"/>
<path d="M1 8364 c0 -11 3 -14 6 -6 3 7 2 16 -1 19 -3 4 -6 -2 -5 -13z"/>
<path d="M12676 8324 c-3 -9 -2 -23 4 -32 7 -14 9 -10 10 16 0 35 -5 41 -14
16z"/>
<path d="M8020 8262 c0 -15 42 -116 56 -132 6 -8 26 -42 43 -75 44 -83 143
-236 226 -350 39 -53 80 -110 92 -127 12 -16 55 -67 96 -111 40 -45 90 -103
111 -129 34 -42 76 -64 76 -39 0 14 -50 72 -117 134 -78 74 -92 105 -69 154
10 20 20 59 23 86 8 69 -15 59 -40 -17 -11 -32 -26 -60 -35 -63 -19 -8 -63 42
-99 111 -25 49 -72 121 -123 186 -15 19 -36 50 -46 68 -46 81 -99 170 -141
234 -18 28 -33 54 -33 58 0 5 -4 12 -10 15 -5 3 -10 2 -10 -3z"/>
<path d="M12668 8211 c-5 -18 -8 -43 -8 -55 1 -19 2 -19 11 -3 6 9 9 34 7 55
l-3 37 -7 -34z"/>
<path d="M12646 8053 c-4 -9 -2 -21 4 -27 7 -7 10 -2 10 17 0 31 -5 34 -14 10z"/>
<path d="M8589 8004 c-15 -41 -24 -144 -11 -144 15 0 21 23 28 101 7 72 1 88
-17 43z"/>
<path d="M805 7490 c3 -5 8 -10 11 -10 2 0 4 5 4 10 0 6 -5 10 -11 10 -5 0 -7
-4 -4 -10z"/>
<path d="M16237 6818 c-34 -45 -131 -237 -124 -244 7 -7 39 43 107 169 53 100
62 134 17 75z"/>
<path d="M13574 6548 c10 -73 11 -227 3 -373 -7 -129 -6 -138 8 -120 11 14 15
39 14 86 -2 70 4 89 26 89 10 0 13 8 10 28 -2 15 -7 66 -10 115 -3 48 -12 106
-20 130 -8 23 -15 52 -15 65 0 12 -5 22 -11 22 -6 0 -8 -16 -5 -42z"/>
<path d="M16000 6370 c-6 -12 -9 -24 -7 -27 3 -2 11 5 17 17 6 12 9 24 7 27
-3 2 -11 -5 -17 -17z"/>
<path d="M15960 6289 c-29 -57 -52 -121 -40 -114 19 12 75 143 65 153 -2 2
-13 -15 -25 -39z"/>
<path d="M9000 6078 c0 -44 23 -78 41 -61 18 18 0 87 -23 91 -14 3 -18 -4 -18
-30z"/>
<path d="M15856 6054 c-15 -31 -25 -61 -23 -68 3 -6 8 -2 12 9 4 11 16 39 27
63 11 24 18 45 15 48 -2 3 -16 -21 -31 -52z"/>
<path d="M16117 5862 c-10 -10 -24 -41 -31 -68 -8 -27 -30 -94 -51 -149 -75
-206 -128 -363 -155 -465 -16 -58 -33 -117 -39 -132 -6 -16 -8 -55 -4 -92 3
-36 1 -91 -5 -123 -13 -66 -39 -377 -45 -534 -4 -98 13 -428 28 -538 12 -87
55 -316 65 -351 6 -19 24 -87 40 -150 28 -112 50 -179 105 -325 61 -163 68
-201 32 -167 -13 12 -29 22 -35 22 -7 0 -12 15 -12 34 0 21 -9 45 -23 63 -19
24 -45 62 -132 204 -5 9 -20 34 -33 55 -25 43 -54 88 -124 190 -26 38 -52 88
-58 112 -8 30 -16 42 -29 42 -32 0 -126 102 -151 164 -23 54 -25 56 -54 50
-25 -4 -39 1 -71 28 -151 126 -384 232 -696 317 -114 32 -174 28 -376 -25 -98
-26 -200 -51 -228 -56 -64 -12 -280 -133 -356 -199 -32 -28 -69 -71 -81 -96
-13 -25 -33 -53 -46 -61 -18 -12 -22 -21 -17 -43 4 -18 -1 -42 -14 -70 -12
-24 -21 -50 -21 -58 0 -9 23 -29 51 -46 77 -45 109 -89 109 -148 0 -26 7 -64
16 -85 19 -43 34 -100 41 -157 5 -47 -26 -142 -58 -171 -64 -59 -119 -121
-119 -135 0 -20 20 -39 41 -39 25 0 37 -20 60 -96 23 -78 34 -189 32 -316 -2
-74 -6 -93 -28 -128 -18 -28 -35 -42 -56 -47 -19 -4 -44 -22 -67 -50 -20 -24
-56 -53 -79 -64 -49 -24 -50 -27 -25 -60 28 -36 42 -84 35 -124 -4 -28 -1 -41
15 -58 29 -31 42 -70 42 -130 0 -71 -16 -121 -49 -160 -16 -17 -37 -53 -48
-78 -17 -37 -35 -56 -91 -93 -67 -46 -71 -49 -77 -96 -4 -33 -2 -62 9 -95 17
-48 57 -296 76 -465 5 -52 15 -120 21 -150 14 -72 19 -125 26 -302 l6 -148
878 0 c484 0 879 4 879 8 0 5 55 16 123 26 67 10 135 22 151 27 16 5 50 9 76
9 66 0 158 19 202 41 44 22 99 78 183 183 33 42 67 78 77 81 9 3 19 16 22 28
16 67 272 347 387 425 57 39 94 90 115 158 8 26 20 55 28 63 40 44 119 316
151 516 9 55 20 104 25 109 5 5 30 9 55 7 l45 -2 0 175 0 174 -30 7 c-33 7
-74 50 -95 101 -7 18 -33 58 -57 90 -24 31 -53 70 -65 87 -30 41 -113 118
-187 173 -91 69 -123 99 -141 136 -10 18 -24 40 -31 49 -7 8 -22 42 -33 75
-10 32 -28 77 -39 99 -65 128 -131 309 -142 390 -4 33 -19 116 -33 185 -14 69
-31 177 -38 240 -20 185 -17 656 6 885 37 366 49 445 120 750 27 116 32 135
70 270 41 144 65 272 55 299 -5 16 -7 16 -23 -2z"/>
<path d="M12384 5859 c-3 -6 -1 -16 5 -22 8 -8 11 -5 11 11 0 24 -5 28 -16 11z"/>
<path d="M15761 5825 c-7 -16 -21 -55 -33 -85 -11 -30 -24 -62 -29 -70 -29
-47 -61 -128 -74 -188 -24 -109 -55 -298 -55 -336 0 -19 -8 -57 -19 -83 -10
-26 -26 -100 -35 -163 -23 -162 -24 -173 -17 -194 6 -17 9 -15 18 10 6 16 18
72 28 124 22 118 64 350 75 410 9 51 53 237 76 320 25 90 31 112 58 189 25 71
31 128 7 66z"/>
<path d="M3510 5740 c0 -5 5 -10 10 -10 6 0 10 5 10 10 0 6 -4 10 -10 10 -5 0
-10 -4 -10 -10z"/>
<path d="M3601 5524 c0 -11 3 -14 6 -6 3 7 2 16 -1 19 -3 4 -6 -2 -5 -13z"/>
<path d="M3660 5370 c0 -19 22 -89 53 -170 13 -36 28 -95 31 -130 9 -82 25
-132 39 -127 24 8 46 -14 66 -65 10 -29 35 -84 54 -123 19 -38 40 -87 48 -108
7 -21 21 -45 31 -54 17 -15 18 -15 18 3 0 11 -11 35 -24 54 -13 19 -26 45 -30
57 -4 12 -31 76 -61 143 -30 67 -55 127 -55 134 0 11 -43 120 -120 306 -32 77
-50 106 -50 80z"/>
<path d="M16756 5088 c-7 -56 -13 -88 -45 -258 -32 -165 -60 -363 -72 -505 -6
-71 -15 -175 -20 -230 -10 -101 -11 -123 -11 -205 0 -25 1 -136 1 -247 0 -111
4 -210 9 -220 6 -10 13 -61 16 -114 8 -129 50 -350 81 -426 14 -35 31 -99 37
-143 7 -44 16 -80 20 -80 4 0 8 558 8 1240 0 698 -4 1240 -9 1240 -5 0 -11
-24 -15 -52z m-77 -1517 c15 -246 14 -314 -1 -309 -7 3 -13 22 -14 44 0 21 -6
84 -12 139 -13 111 -16 318 -5 329 15 15 22 -27 32 -203z"/>
<path d="M13495 5059 c-9 -14 -44 -185 -45 -217 0 -13 4 -21 9 -17 9 5 14 27
42 173 11 61 9 86 -6 61z"/>
<path d="M12487 5027 c-9 -23 -20 -127 -14 -127 12 0 25 36 32 88 4 32 3 52
-3 52 -5 0 -12 -6 -15 -13z"/>
<path d="M9260 4952 c-61 -30 -103 -146 -85 -238 5 -28 9 -34 16 -23 5 8 9 26
9 40 0 48 32 132 60 161 38 37 75 36 136 -4 36 -24 56 -48 76 -88 33 -66 35
-113 8 -158 -29 -48 -24 -60 11 -26 36 33 68 97 69 134 0 55 -96 161 -182 200
-53 24 -74 25 -118 2z"/>
<path d="M3784 4860 c8 -50 50 -178 76 -229 30 -59 29 -19 -1 44 -15 33 -28
70 -29 82 0 12 -4 24 -9 27 -4 3 -11 26 -14 52 -2 25 -10 51 -17 57 -10 10
-11 3 -6 -33z"/>
<path d="M12446 4834 c-32 -104 -57 -235 -62 -324 -3 -58 -9 -148 -15 -200 -6
-52 -12 -120 -15 -150 -2 -30 -9 -91 -15 -135 -6 -44 -12 -93 -14 -110 -3 -29
-35 -211 -53 -308 -5 -26 -17 -56 -27 -67 -10 -11 -20 -46 -25 -87 -4 -37 -16
-90 -25 -118 -16 -45 -23 -121 -12 -132 14 -13 62 117 71 191 3 27 11 55 17
62 6 7 15 48 20 91 5 43 16 96 24 118 26 72 56 274 79 535 9 96 20 214 25 263
5 52 4 104 -1 130 -8 35 -5 58 21 142 17 56 27 103 22 108 -5 5 -12 1 -15 -9z"/>
<path d="M2 4389 l3 -303 94 -42 c68 -29 104 -52 130 -81 143 -160 181 -206
181 -219 0 -14 -5 -13 -34 4 -42 25 -172 130 -210 171 -17 17 -35 31 -41 31
-6 0 -37 25 -68 55 l-57 56 0 -41 c0 -35 7 -47 55 -97 30 -32 55 -61 55 -65 0
-16 -26 -6 -60 22 -19 17 -38 30 -42 30 -4 0 -8 -76 -8 -169 l0 -169 98 -64
c135 -90 312 -227 312 -242 0 -7 -8 -21 -19 -30 -10 -9 -22 -35 -25 -58 -8
-51 -22 -78 -41 -78 -7 0 -40 39 -72 87 -79 117 -135 193 -181 243 -13 14 -31
37 -40 53 -9 15 -20 27 -24 27 -4 0 -8 -619 -8 -1375 0 -1351 0 -1375 19
-1375 11 0 28 -11 39 -25 34 -43 79 -184 91 -290 7 -55 19 -149 26 -210 8 -60
17 -138 21 -172 l6 -63 505 0 c477 0 505 1 498 18 -19 46 -27 105 -16 129 8
18 8 30 -1 46 -6 12 -17 72 -24 132 -20 172 -33 262 -55 365 -24 112 -35 213
-20 190 9 -15 83 -272 119 -415 28 -110 52 -243 52 -286 0 -21 7 -42 16 -50
12 -10 15 -27 12 -71 l-3 -58 54 0 c47 0 52 2 46 18 -16 37 -17 68 0 82 13 11
31 10 113 -10 53 -13 132 -34 175 -47 43 -12 87 -23 97 -23 10 0 22 -4 25 -10
3 -5 25 -10 48 -10 24 0 37 4 31 9 -22 20 -331 110 -418 122 -66 8 -75 17 -76
74 0 22 -7 83 -15 135 -41 271 -56 361 -69 420 -28 128 -56 246 -66 276 -6 17
-10 39 -10 50 0 11 -4 24 -8 29 -13 15 -68 169 -96 270 -14 50 -37 122 -51
160 -15 39 -33 101 -42 140 -8 38 -21 81 -28 95 -7 14 -29 68 -49 120 -20 52
-43 109 -51 125 -8 17 -26 59 -40 94 -15 36 -45 101 -68 146 -23 44 -47 92
-53 105 -5 14 -49 98 -97 188 -48 89 -87 167 -87 173 0 6 15 37 34 68 19 31
40 79 47 106 14 61 45 115 66 115 24 0 278 -231 325 -295 16 -22 76 -87 132
-145 125 -127 299 -349 471 -601 17 -25 43 -61 57 -80 14 -19 62 -107 107
-197 44 -90 90 -175 100 -188 29 -37 55 -94 106 -234 62 -167 56 -186 -50
-160 -54 14 -349 50 -407 50 -26 0 -50 -5 -54 -11 -5 -8 -39 -9 -114 -4 -93 6
-109 4 -124 -10 -32 -32 -13 -40 110 -48 110 -6 121 -6 146 13 49 36 204 25
428 -29 l105 -26 26 -55 c26 -53 43 -155 48 -284 1 -11 4 -16 9 -12 4 4 7 74
7 154 l0 147 35 -2 c110 -6 209 -24 274 -49 45 -17 2 15 -56 43 -68 32 -134
47 -143 32 -11 -17 -35 -9 -47 16 -7 16 -24 29 -48 35 -48 13 -55 22 -74 95
-35 135 -136 425 -175 502 -22 46 -41 88 -41 96 0 17 -171 354 -215 422 -18
30 -57 98 -86 152 -28 54 -78 136 -109 183 -32 47 -67 105 -79 130 -12 25 -39
68 -61 95 -105 131 -130 160 -199 235 -41 44 -82 93 -91 108 -9 15 -60 72
-113 127 -101 103 -101 103 -91 129 10 26 38 19 187 -43 78 -32 165 -66 192
-74 28 -8 115 -36 195 -61 80 -24 208 -64 285 -86 333 -100 612 -198 787 -279
46 -21 101 -44 123 -51 22 -7 54 -21 70 -30 36 -22 142 -63 129 -51 -18 18
-380 202 -454 231 -30 12 -75 31 -100 42 -25 11 -58 24 -75 28 -16 5 -109 35
-205 68 -96 33 -195 65 -220 72 -25 7 -76 23 -115 36 -38 12 -151 48 -250 79
-238 75 -284 92 -472 171 -37 16 -39 25 -18 103 32 122 77 385 92 542 18 200
17 206 -72 257 -33 19 -94 56 -135 81 -98 62 -332 173 -410 196 -14 4 -38 13
-55 20 -16 7 -82 27 -145 45 -63 18 -121 35 -128 38 -10 3 -12 -58 -10 -299z
m396 -501 c14 -14 16 -48 4 -48 -9 0 -33 25 -46 48 -9 16 26 16 42 0z"/>
<path d="M13630 4560 c-6 -23 -10 -56 -8 -73 l3 -32 17 36 c22 44 27 100 11
106 -7 3 -16 -13 -23 -37z"/>
<path d="M9220 4566 c0 -21 27 -38 50 -31 26 8 19 20 -20 33 -24 9 -30 8 -30
-2z"/>
<path d="M15476 4571 c-5 -7 -10 -43 -13 -80 l-4 -66 16 35 c17 36 18 137 1
111z"/>
<path d="M3897 4551 c3 -12 10 -21 15 -21 13 0 6 32 -9 37 -7 3 -9 -3 -6 -16z"/>
<path d="M3930 4498 c0 -4 5 -18 11 -32 12 -25 39 -43 39 -26 0 11 -49 68 -50
58z"/>
<path d="M4034 4465 c3 -16 8 -43 12 -59 6 -26 5 -29 -15 -23 -11 3 -21 2 -21
-2 0 -4 40 -56 89 -115 53 -65 105 -142 132 -194 23 -48 53 -100 65 -117 12
-16 24 -43 28 -59 4 -16 20 -48 35 -70 43 -63 98 -159 105 -184 10 -30 174
-312 197 -338 11 -11 19 -25 19 -31 0 -6 7 -17 16 -24 18 -14 72 -95 119 -176
46 -79 109 -164 150 -203 40 -37 35 -22 -14 45 -16 22 -44 69 -63 104 -18 34
-45 72 -59 82 -15 10 -34 36 -42 57 -8 21 -22 44 -31 51 -9 8 -16 19 -16 26 0
7 -10 25 -22 41 -13 15 -32 44 -43 64 -11 20 -37 67 -58 106 -78 141 -88 160
-106 184 -26 37 -71 127 -71 143 0 8 -9 22 -19 31 -11 10 -25 32 -32 49 -7 18
-25 48 -40 67 -15 19 -30 46 -33 60 -4 14 -18 48 -31 75 -13 28 -29 65 -36 83
-7 19 -18 39 -25 46 -6 7 -26 40 -43 75 -18 34 -47 82 -66 107 -19 25 -35 51
-35 57 0 7 -12 26 -26 42 l-25 30 5 -30z"/>
<path d="M4890 4410 c0 -5 4 -10 9 -10 6 0 13 5 16 10 3 6 -1 10 -9 10 -9 0
-16 -4 -16 -10z"/>
<path d="M15446 4358 c-3 -29 -6 -66 -5 -83 1 -49 15 -1 22 73 6 75 -8 84 -17
10z"/>
<path d="M5142 4387 c-8 -9 -4 -15 13 -23 27 -13 42 5 22 25 -14 14 -22 14
-35 -2z"/>
<path d="M15426 4169 c-9 -29 -15 -189 -7 -189 10 0 26 188 17 197 -3 3 -8 0
-10 -8z"/>
<path d="M15607 3987 c-3 -8 -1 -20 4 -28 6 -10 9 -7 9 14 0 29 -5 35 -13 14z"/>
<path d="M11983 3873 c-31 -43 -75 -96 -96 -117 -21 -22 -44 -51 -52 -66 -16
-30 -122 -129 -150 -140 -11 -4 -47 -40 -81 -81 -38 -47 -77 -82 -107 -97 -41
-22 -45 -27 -41 -51 5 -22 -3 -38 -40 -81 -50 -58 -59 -86 -26 -75 11 4 20 2
20 -4 0 -20 -173 -269 -232 -333 -20 -22 -50 -66 -67 -97 -16 -31 -53 -88 -81
-126 -27 -39 -80 -112 -118 -163 -66 -92 -113 -152 -263 -335 -42 -50 -86
-109 -99 -131 l-23 -39 26 18 c15 9 27 20 27 24 0 4 16 25 36 47 110 119 222
251 246 287 14 23 40 58 56 77 16 19 60 82 98 140 38 58 83 122 99 143 17 20
48 66 70 101 22 35 76 117 120 182 87 127 157 249 175 304 7 19 29 53 50 75
86 89 173 170 189 177 9 4 62 7 118 7 56 1 104 5 107 10 9 15 -20 21 -72 14
-52 -6 -92 8 -92 32 0 8 30 52 68 99 70 89 184 242 196 264 20 34 -9 3 -61
-65z"/>
<path d="M1842 3886 c21 -18 109 -68 195 -110 87 -43 180 -89 206 -103 27 -14
94 -44 150 -68 124 -52 254 -109 324 -141 28 -13 54 -24 56 -24 3 0 43 -22 90
-50 47 -27 88 -50 91 -50 3 0 41 -22 83 -50 42 -27 81 -50 85 -50 5 0 32 -17
61 -38 74 -55 170 -101 153 -74 -9 15 -218 152 -296 195 -160 86 -481 246
-545 270 -39 15 -107 46 -150 68 -44 23 -101 49 -126 59 -60 24 -302 144 -354
175 -56 35 -67 30 -23 -9z"/>
<path d="M15607 3903 c-11 -10 -8 -53 3 -53 6 0 10 14 10 30 0 31 -2 35 -13
23z"/>
<path d="M15606 3821 c-4 -5 -2 -20 3 -33 9 -21 10 -21 10 10 1 32 -3 39 -13
23z"/>
<path d="M5895 3593 c3 -16 17 -42 31 -60 13 -17 24 -35 24 -38 0 -12 64 -100
117 -161 44 -51 53 -68 53 -100 0 -23 10 -55 25 -79 13 -22 36 -62 51 -90 14
-27 39 -65 55 -85 15 -19 45 -63 66 -96 81 -131 250 -364 264 -364 4 0 34 -35
66 -77 68 -91 377 -406 443 -452 62 -43 103 -78 157 -134 26 -26 91 -82 145
-124 54 -42 98 -79 98 -83 0 -11 50 -31 61 -25 17 11 9 35 -18 52 -16 9 -42
29 -59 43 -17 14 -75 57 -128 95 -53 39 -115 87 -138 108 -23 20 -46 37 -50
37 -5 0 -16 16 -25 35 -9 19 -24 37 -34 40 -40 13 -380 371 -535 565 -144 179
-374 528 -374 566 0 26 29 14 60 -26 18 -22 42 -45 53 -52 20 -10 20 -8 -3 18
-14 16 -33 37 -42 47 -10 10 -18 22 -18 26 0 5 -26 41 -57 79 -54 65 -134 172
-209 278 -61 86 -92 109 -79 57z"/>
<path d="M12946 3565 c-15 -19 -40 -61 -57 -93 -16 -31 -41 -72 -54 -91 -14
-19 -25 -41 -25 -49 0 -25 36 14 72 77 18 31 44 67 58 81 17 16 29 41 33 68 4
23 5 42 3 42 -2 0 -16 -16 -30 -35z"/>
<path d="M13081 3511 c-7 -5 -9 -11 -5 -14 10 -5 54 9 54 18 0 8 -34 6 -49 -4z"/>
<path d="M12717 3213 c-4 -3 -7 -11 -7 -17 0 -6 5 -5 12 2 6 6 9 14 7 17 -3 3
-9 2 -12 -2z"/>
<path d="M12612 3078 c-126 -147 -339 -339 -497 -447 -27 -19 -79 -54 -114
-78 -35 -25 -90 -57 -121 -73 -31 -16 -81 -52 -110 -80 -29 -28 -72 -64 -94
-79 -96 -65 -286 -152 -466 -212 -115 -39 -115 -39 -55 -34 129 10 408 130
605 260 52 34 120 79 150 98 72 47 203 140 277 197 32 25 71 53 86 63 43 28
308 296 354 358 60 82 76 109 65 109 -5 0 -42 -37 -80 -82z"/>
<path d="M2550 3130 c0 -5 7 -10 16 -10 8 0 12 5 9 10 -3 6 -10 10 -16 10 -5
0 -9 -4 -9 -10z"/>
<path d="M2618 3093 c13 -23 97 -88 163 -126 25 -14 52 -33 59 -42 7 -9 43
-36 79 -61 36 -24 84 -58 106 -74 22 -17 51 -38 65 -47 14 -9 36 -26 50 -38
38 -32 80 -57 80 -46 0 8 -131 120 -253 216 -103 81 -303 216 -342 231 -15 6
-16 4 -7 -13z"/>
<path d="M12151 3084 c0 -11 3 -14 6 -6 3 7 2 16 -1 19 -3 4 -6 -2 -5 -13z"/>
<path d="M4980 3007 c0 -16 72 -128 94 -146 9 -7 16 -19 16 -26 0 -16 63 -121
89 -149 22 -23 53 -106 41 -106 -5 0 -27 21 -49 48 -35 40 -41 44 -41 25 0
-15 37 -60 111 -135 61 -62 122 -131 136 -153 14 -22 38 -53 53 -70 15 -16 61
-75 102 -130 115 -154 348 -389 348 -350 0 10 -75 111 -111 150 -45 49 -263
323 -341 431 -179 246 -215 296 -233 325 -50 83 -59 96 -86 127 -16 18 -29 37
-29 43 0 6 -18 37 -40 70 -39 57 -60 73 -60 46z"/>
<path d="M6400 2991 c13 -24 274 -263 360 -330 71 -55 214 -152 251 -171 21
-11 22 -11 9 3 -19 19 -197 147 -205 147 -10 0 -122 98 -229 202 -97 93 -183
168 -192 168 -3 0 0 -9 6 -19z"/>
<path d="M12104 2996 c-3 -8 -4 -23 -2 -33 3 -13 7 -9 15 15 12 31 -1 48 -13
18z"/>
<path d="M12043 2844 c-3 -10 -17 -32 -29 -49 -27 -37 -114 -210 -114 -227 0
-7 19 17 43 53 46 71 121 228 113 236 -3 3 -9 -3 -13 -13z"/>
<path d="M5010 2825 c0 -12 37 -75 45 -75 3 0 5 6 5 13 0 15 -49 76 -50 62z"/>
<path d="M3103 2504 c49 -27 99 -64 147 -108 39 -36 48 -53 59 -102 11 -52 25
-102 63 -234 6 -19 16 -42 23 -50 13 -16 45 -136 45 -169 0 -11 16 -59 35
-106 43 -107 53 -171 32 -211 -10 -20 -16 -78 -20 -194 -8 -224 -47 -457 -106
-640 -25 -74 -76 -186 -89 -194 -12 -7 -51 12 -94 46 -15 12 -31 18 -35 14 -5
-5 6 -19 22 -32 248 -193 388 -319 535 -482 22 -24 47 -42 59 -42 26 0 26 5 1
40 -20 29 -294 290 -390 372 l-55 47 22 39 c34 61 103 232 103 257 0 12 13 60
29 106 16 46 32 107 36 135 7 53 26 118 38 130 4 4 7 17 7 30 0 16 9 25 31 33
26 9 30 8 26 -4 -4 -9 -1 -12 9 -8 8 3 20 1 27 -5 6 -5 20 -9 30 -9 17 0 18 9
12 112 -5 100 -15 154 -46 265 -5 19 -14 58 -19 85 -14 72 -34 139 -70 230
-17 44 -36 96 -42 115 -6 19 -44 102 -85 183 -41 82 -72 151 -69 154 9 10 48
-10 173 -89 146 -92 227 -138 245 -138 26 0 -140 123 -221 165 -61 30 -154 88
-299 184 -87 58 -157 92 -186 91 -6 -1 1 -8 17 -16z"/>
<path d="M7095 2430 c3 -5 11 -10 16 -10 6 0 7 5 4 10 -3 6 -11 10 -16 10 -6
0 -7 -4 -4 -10z"/>
<path d="M7180 2381 c0 -13 78 -66 86 -58 3 3 -15 19 -40 37 -25 17 -46 26
-46 21z"/>
<path d="M13199 2308 c-1 -12 -2 -50 -4 -83 -3 -61 2 -57 25 21 14 46 11 75
-7 82 -8 2 -13 -6 -14 -20z"/>
<path d="M7280 2306 c0 -2 7 -7 16 -10 8 -3 12 -2 9 4 -6 10 -25 14 -25 6z"/>
<path d="M8220 1886 c0 -28 22 -36 120 -41 43 -3 60 -1 50 5 -8 5 -24 10 -35
10 -11 0 -42 11 -70 25 -62 30 -65 30 -65 1z"/>
<path d="M8580 1880 c-20 -13 -2 -30 33 -30 18 0 52 -5 76 -11 24 -5 51 -7 60
-4 25 10 -26 34 -71 35 -20 0 -47 4 -61 9 -13 5 -29 6 -37 1z"/>
<path d="M10365 1851 c-3 -5 8 -24 25 -42 19 -22 30 -44 30 -64 0 -37 9 -50
36 -59 12 -4 34 -18 48 -31 l26 -24 0 29 c0 24 -8 35 -40 55 -36 23 -57 54
-74 107 -6 21 -43 42 -51 29z"/>
<path d="M3376 1815 c-4 -14 -2 -33 3 -43 8 -13 10 -8 11 26 0 48 -5 54 -14
17z"/>
<path d="M4280 1729 c0 -6 23 -42 51 -81 27 -38 53 -77 56 -86 4 -9 26 -45 50
-80 24 -35 43 -70 43 -79 0 -9 3 -14 6 -10 9 9 -54 159 -80 187 -12 14 -44 55
-70 93 -47 68 -56 76 -56 56z"/>
<path d="M6360 1713 c1 -21 16 -30 38 -22 32 12 27 29 -8 29 -16 0 -30 -3 -30
-7z"/>
<path d="M3360 1654 c0 -8 5 -12 10 -9 6 3 10 10 10 16 0 5 -4 9 -10 9 -5 0
-10 -7 -10 -16z"/>
<path d="M6100 1646 c0 -8 5 -18 10 -21 6 -3 10 1 10 9 0 8 -4 18 -10 21 -5 3
-10 -1 -10 -9z"/>
<path d="M5859 1615 c-3 -2 -75 -20 -159 -40 -345 -79 -623 -196 -832 -352
-112 -82 -129 -104 -163 -200 -36 -100 -80 -175 -115 -195 -19 -11 -29 -26
-33 -49 -11 -76 -51 -207 -77 -254 -16 -27 -34 -63 -40 -80 l-11 -30 25 24
c14 13 30 39 37 58 6 18 15 31 20 28 15 -10 10 -99 -11 -229 -11 -67 -24 -152
-31 -191 -6 -38 -13 -78 -15 -87 -5 -17 57 -18 1205 -18 666 0 1211 2 1211 5
0 2 -11 20 -24 40 -14 20 -32 60 -40 89 -9 29 -23 59 -31 66 -22 18 -21 177 1
208 9 13 13 29 11 37 -8 20 -64 29 -97 15 -23 -9 -40 -8 -96 9 -38 11 -85 32
-105 45 -41 28 -99 109 -99 139 0 11 -12 40 -26 65 -38 64 -46 143 -24 212 10
30 20 92 22 137 l3 82 -45 21 c-83 39 -114 80 -130 168 -4 26 -24 92 -44 147
l-36 100 -42 2 c-24 0 -74 8 -111 17 -72 17 -91 19 -98 11z"/>
<path d="M9990 1580 c-11 -7 -5 -10 23 -10 23 0 36 4 32 10 -8 13 -35 13 -55
0z"/>
<path d="M4520 1565 c0 -11 5 -27 10 -35 8 -12 10 -12 10 5 0 11 -5 27 -10 35
-8 12 -10 12 -10 -5z"/>
<path d="M9870 1571 c-18 -5 -21 -9 -12 -15 18 -11 104 3 97 15 -7 10 -48 10
-85 0z"/>
<path d="M3346 1555 c-3 -8 -1 -15 4 -15 6 0 10 7 10 15 0 8 -2 15 -4 15 -2 0
-6 -7 -10 -15z"/>
<path d="M10498 1498 l-3 -53 -110 -27 c-60 -16 -137 -41 -170 -57 -33 -16
-68 -32 -78 -35 -9 -3 -27 -21 -38 -41 -25 -42 -50 -58 -81 -50 -13 3 -40 -1
-60 -10 -21 -8 -50 -15 -66 -15 -15 0 -48 -13 -73 -28 -24 -15 -78 -44 -119
-64 -41 -19 -104 -58 -140 -86 -145 -114 -247 -199 -325 -270 -22 -21 -55 -49
-74 -65 -19 -15 -107 -97 -196 -182 -89 -85 -179 -168 -201 -184 -57 -42 -134
-119 -183 -182 -23 -30 -58 -74 -78 -99 l-36 -45 988 -3 c544 -1 990 0 992 2
5 5 -67 265 -92 336 -26 72 -43 169 -36 197 7 28 73 61 124 62 15 1 82 17 148
37 167 49 166 50 205 -62 17 -50 34 -102 37 -115 11 -48 36 -126 71 -219 19
-52 45 -128 57 -167 l21 -73 404 0 403 0 -82 111 c-45 61 -101 134 -124 163
-23 28 -38 52 -33 54 6 2 40 -18 77 -45 198 -144 276 -186 398 -213 28 -6 60
-18 73 -26 39 -25 73 -14 101 33 62 101 280 405 321 447 5 5 19 2 34 -8 32
-20 35 -20 29 2 -3 14 8 23 52 41 52 22 90 55 80 72 -8 11 -42 -1 -61 -22 -10
-12 -30 -19 -52 -19 -40 0 -41 -9 7 165 36 129 56 219 66 294 6 41 15 62 43
93 l35 39 -23 24 c-22 24 -23 27 -11 97 11 69 11 72 -11 95 -27 26 -87 41
-328 79 -312 49 -720 76 -1060 70 l-175 -3 -175 -61 c-96 -33 -190 -66 -207
-73 -29 -12 -37 -11 -62 4 -16 9 -40 17 -54 17 -32 0 -115 64 -123 95 -10 41
-23 28 -26 -27z"/>
<path d="M6377 1526 c-3 -7 14 -32 39 -57 44 -43 44 -43 44 -16 0 17 -11 38
-31 57 -36 33 -44 36 -52 16z"/>
<path d="M4538 1493 c-2 -10 -1 -34 3 -53 4 -19 9 -64 10 -100 2 -70 28 -200
39 -200 14 0 19 77 10 165 -13 129 -50 243 -62 188z"/>
<path d="M8088 1473 c-40 -10 -10 -33 43 -33 18 0 29 5 29 14 0 22 -31 30 -72
19z"/>
<path d="M3322 1428 c-6 -18 -13 -49 -17 -68 -5 -32 -5 -34 9 -16 15 19 33
103 23 112 -3 3 -10 -10 -15 -28z"/>
<path d="M3281 1257 c-1 -9 -5 -25 -10 -35 -6 -9 -21 -44 -35 -77 -71 -173
-98 -241 -104 -255 -5 -13 -4 -13 13 0 10 8 31 42 45 75 39 86 103 283 97 298
-3 7 -6 5 -6 -6z"/>
<path d="M6533 1224 c-3 -9 7 -27 28 -48 49 -47 91 -103 124 -164 31 -57 126
-154 132 -135 7 21 -43 95 -126 186 -44 48 -93 108 -108 133 -30 47 -40 53
-50 28z"/>
<path d="M13137 1177 c-21 -16 -45 -22 -100 -25 -78 -4 -100 -14 -77 -35 11
-10 35 -12 90 -7 71 5 78 8 120 48 42 39 43 42 20 41 -14 0 -38 -10 -53 -22z"/>
<path d="M12951 1005 c-11 -25 -23 -63 -27 -83 -6 -37 -6 -37 14 -17 18 19 52
103 52 132 0 28 -20 11 -39 -32z"/>
<path d="M3107 853 c-21 -24 -39 -73 -27 -73 10 0 54 79 47 86 -2 2 -11 -4
-20 -13z"/>
<path d="M12898 834 c-5 -4 -8 -19 -8 -33 0 -18 3 -22 11 -14 6 6 9 21 7 33
-1 12 -6 18 -10 14z"/>
<path d="M3031 731 c-18 -22 -39 -41 -47 -41 -31 0 -8 -32 33 -44 17 -6 20 -3
16 12 -2 10 5 35 17 55 32 54 19 66 -19 18z"/>
<path d="M0 395 l0 -305 29 0 c31 0 47 13 53 45 2 11 10 20 18 20 17 0 17 2 1
150 -12 112 -30 203 -56 285 -7 25 -17 60 -20 78 -4 17 -11 32 -16 32 -5 0 -9
-126 -9 -305z"/>
<path d="M16140 499 c0 -27 16 -56 39 -69 17 -9 18 -7 11 26 -13 56 -50 88
-50 43z"/>
<path d="M12579 399 c-42 -42 -6 -107 45 -79 30 16 39 38 30 74 -8 33 -45 35
-75 5z"/>
<path d="M4400 369 c-7 -16 -29 -42 -48 -57 -46 -35 -229 -217 -201 -200 12 7
33 20 48 28 62 35 141 97 151 119 6 13 27 47 45 76 37 54 41 65 26 65 -5 0
-14 -14 -21 -31z"/>
<path d="M7362 338 c3 -7 27 -26 56 -43 28 -16 60 -42 72 -57 11 -15 31 -30
43 -34 19 -6 119 -62 239 -133 21 -13 43 -21 50 -19 14 5 -2 16 -102 71 -36
19 -96 58 -134 86 -38 28 -72 51 -76 51 -4 0 -35 20 -69 45 -61 45 -86 56 -79
33z"/>
<path d="M12586 218 c-24 -34 -20 -63 10 -77 57 -25 102 48 52 83 -30 22 -44
20 -62 -6z"/>
<path d="M4097 88 c-10 -5 -35 -7 -55 -3 -34 5 -40 2 -82 -40 -44 -44 -44 -45
-17 -45 23 0 84 29 163 77 24 14 16 25 -9 11z"/>
<path d="M7868 29 c12 -7 22 -16 22 -21 0 -4 16 -8 35 -8 42 0 47 15 8 23 -90
18 -90 18 -65 6z"/>
<path d="M12590 16 c-11 -14 -7 -16 30 -16 29 0 40 4 38 13 -7 18 -53 20 -68
3z"/>
<path d="M15530 10 c0 -5 5 -10 10 -10 6 0 10 5 10 10 0 6 -4 10 -10 10 -5 0
-10 -4 -10 -10z"/>
</g>
</svg>
